<?xml version="1.0" standalone="no"?>
<!DOCTYPE svg PUBLIC "-//W3C//DTD SVG 20010904//EN"
 "http://www.w3.org/TR/2001/REC-SVG-20010904/DTD/svg10.dtd">
<svg version="1.0" xmlns="http://www.w3.org/2000/svg"
 width="1208.000000pt" height="1208.000000pt" viewBox="0 0 1208.000000 1208.000000"
 preserveAspectRatio="xMidYMid meet">
<metadata>
Created by potrace 1.14, written by Peter Selinger 2001-2017
</metadata>
<g transform="translate(0.000000,1208.000000) scale(0.100000,-0.100000)"
fill="#000000" stroke="none">
<path d="M5900 12068 c-51 -12 -160 -17 -166 -6 -3 5 -12 4 -20 -3 -8 -7 -29
-9 -50 -6 -19 3 -47 1 -62 -5 -15 -6 -30 -12 -34 -13 -5 -2 -11 -4 -15 -5 -5
-2 -21 -4 -38 -5 -16 -1 -37 -5 -45 -9 -14 -6 -47 -9 -190 -20 -25 -1 -67 -10
-93 -19 -26 -10 -64 -17 -83 -17 -19 0 -48 -7 -64 -15 -17 -9 -30 -13 -30 -11
0 3 -25 -8 -55 -24 -30 -16 -74 -32 -97 -35 -23 -4 -53 -12 -68 -19 -14 -8
-33 -12 -42 -11 -10 2 -44 -14 -75 -36 -32 -21 -64 -39 -72 -39 -8 0 -22 -7
-31 -15 -10 -9 -31 -17 -47 -19 -17 -2 -49 -14 -71 -25 -23 -12 -49 -21 -59
-21 -10 0 -43 -16 -73 -35 -30 -19 -61 -35 -70 -35 -20 0 -122 -65 -168 -106
-17 -17 -49 -36 -70 -43 -20 -8 -51 -25 -68 -37 -17 -13 -33 -21 -37 -18 -3 3
-27 -17 -53 -45 -27 -28 -53 -51 -60 -51 -6 0 -19 -9 -30 -21 -10 -12 -35 -30
-55 -40 -21 -10 -43 -25 -51 -33 -8 -7 -32 -23 -54 -34 -21 -12 -57 -39 -78
-62 -22 -22 -45 -40 -51 -40 -17 0 -95 -77 -133 -130 -18 -26 -47 -54 -65 -65
-17 -10 -50 -36 -71 -57 -22 -21 -42 -38 -47 -38 -4 0 -10 -11 -13 -25 -3 -13
-21 -40 -40 -58 -18 -19 -41 -46 -51 -60 -9 -15 -23 -27 -30 -27 -7 0 -28 -18
-45 -40 -18 -22 -45 -47 -61 -56 -16 -8 -29 -21 -29 -29 0 -8 -26 -41 -57 -72
-31 -32 -76 -92 -99 -133 -40 -69 -73 -112 -146 -191 -15 -16 -32 -47 -38 -68
-6 -22 -21 -53 -34 -68 -13 -15 -26 -38 -30 -51 -4 -12 -16 -27 -27 -32 -10
-6 -26 -25 -35 -43 -9 -18 -32 -49 -50 -70 -19 -20 -34 -43 -34 -51 0 -8 -15
-34 -34 -59 -31 -40 -58 -84 -62 -97 0 -3 -4 -12 -7 -20 -4 -8 -15 -39 -25
-68 -11 -29 -27 -63 -38 -75 -10 -12 -28 -41 -38 -64 -10 -24 -22 -43 -26 -43
-10 0 -21 -27 -27 -65 -2 -16 -13 -47 -24 -68 -10 -21 -19 -43 -19 -50 0 -7
-14 -32 -30 -56 -17 -24 -30 -50 -30 -58 0 -8 -11 -29 -25 -48 -14 -18 -28
-43 -31 -56 -3 -13 -6 -29 -7 -34 -2 -6 -16 -35 -33 -65 -27 -49 -46 -112 -58
-191 -2 -15 -16 -48 -30 -75 -14 -27 -26 -56 -26 -65 0 -9 -8 -27 -18 -40 -12
-16 -18 -39 -16 -69 1 -25 -5 -57 -12 -72 -8 -15 -14 -37 -14 -50 0 -13 -9
-36 -20 -53 -11 -16 -20 -39 -20 -50 0 -12 -9 -39 -20 -60 -11 -22 -23 -53
-25 -70 -7 -51 -13 -73 -25 -95 -15 -28 -20 -53 -26 -125 -4 -51 -13 -118 -19
-135 -1 -3 -7 -18 -13 -33 -7 -16 -12 -34 -12 -42 0 -7 -6 -27 -14 -45 -8 -19
-11 -45 -7 -64 8 -36 6 -59 -7 -101 -5 -16 -8 -38 -6 -48 1 -10 -4 -30 -12
-45 -8 -15 -14 -43 -14 -62 0 -19 -7 -48 -15 -64 -9 -16 -14 -41 -12 -55 3
-23 -1 -51 -20 -126 -8 -32 -9 -117 -2 -156 3 -20 -1 -60 -8 -90 -14 -53 -20
-184 -11 -224 3 -11 2 -31 -2 -45 -4 -14 -4 -34 0 -45 4 -11 3 -28 -1 -37 -21
-39 -31 -389 -14 -470 8 -37 11 -80 9 -95 -12 -65 -10 -169 4 -203 10 -25 15
-83 16 -205 1 -93 4 -174 8 -180 3 -5 5 -35 4 -65 -1 -30 2 -73 7 -95 5 -22
11 -47 12 -55 1 -8 8 -28 15 -45 7 -16 14 -59 16 -95 6 -112 15 -162 32 -189
9 -14 16 -25 14 -26 -2 0 -1 -7 2 -15 8 -26 17 -83 20 -136 2 -28 8 -59 13
-70 6 -10 9 -35 8 -54 -1 -19 5 -53 13 -75 8 -22 16 -61 18 -87 1 -26 8 -56
14 -68 6 -11 9 -20 6 -20 -2 0 9 -27 25 -60 29 -61 35 -78 44 -144 3 -21 8
-43 11 -48 4 -6 9 -26 11 -46 3 -19 12 -42 20 -50 16 -17 32 -54 40 -92 2 -13
9 -27 14 -30 5 -4 11 -24 13 -46 1 -21 10 -53 18 -69 8 -17 15 -46 17 -65 1
-19 11 -50 21 -68 11 -19 25 -55 31 -80 10 -48 58 -150 89 -189 9 -12 23 -44
30 -70 7 -26 16 -52 20 -58 4 -5 11 -24 15 -42 3 -18 22 -49 41 -70 19 -21 37
-49 40 -63 4 -14 12 -32 19 -40 7 -8 18 -35 25 -60 7 -25 18 -52 25 -60 7 -8
18 -32 23 -52 6 -20 21 -52 35 -70 13 -18 32 -53 41 -77 20 -51 38 -78 102
-153 24 -28 44 -58 44 -65 0 -14 20 -55 32 -63 4 -3 14 -21 22 -40 8 -19 35
-54 60 -78 25 -23 46 -51 46 -62 0 -11 7 -20 15 -20 16 0 48 -54 38 -64 -4 -3
-1 -6 5 -6 7 0 12 -6 12 -14 0 -8 6 -16 13 -19 8 -3 24 -27 37 -54 12 -26 34
-59 49 -73 15 -14 40 -45 55 -70 33 -50 72 -91 129 -134 21 -15 42 -38 47 -50
4 -12 22 -37 39 -55 17 -18 31 -36 31 -40 0 -11 45 -51 57 -51 6 0 31 -20 55
-45 24 -24 48 -45 55 -45 6 0 15 -10 19 -22 4 -12 28 -44 53 -70 25 -26 53
-54 61 -63 46 -48 168 -158 185 -166 48 -23 114 -67 146 -96 83 -78 114 -103
126 -103 21 0 93 -39 93 -50 0 -6 9 -10 20 -10 11 0 32 -14 47 -31 16 -17 42
-38 58 -46 17 -8 44 -28 60 -43 17 -15 41 -31 55 -35 14 -4 47 -23 73 -43 27
-19 90 -49 142 -67 52 -18 108 -43 125 -55 17 -12 36 -23 43 -24 7 -1 29 -12
48 -24 20 -12 51 -22 68 -22 18 0 50 -9 72 -19 22 -11 46 -18 52 -15 7 2 28
-7 47 -21 19 -14 41 -25 50 -25 9 0 38 -11 64 -24 25 -13 64 -26 85 -30 22 -3
60 -15 86 -26 28 -12 81 -22 133 -26 48 -3 113 -15 145 -25 32 -11 64 -19 70
-18 7 1 25 -3 41 -10 18 -7 39 -8 60 -3 17 5 40 7 51 5 11 -2 43 -5 71 -7 27
-1 56 -6 64 -11 7 -5 39 -10 69 -12 161 -9 200 -12 246 -17 45 -4 72 -1 180
20 17 4 35 6 40 5 73 -6 107 -6 111 0 4 7 36 0 54 -12 3 -2 19 4 35 13 53 29
73 34 180 41 28 3 66 8 85 12 19 5 49 7 65 6 17 -1 47 5 68 14 21 8 59 17 85
20 49 4 125 30 186 65 20 11 45 20 56 20 11 0 39 7 62 14 24 8 56 17 72 20 15
3 38 12 50 20 11 9 31 23 42 31 12 9 31 18 44 20 12 2 29 10 37 17 8 6 25 14
36 16 38 6 42 7 55 15 6 5 12 5 12 0 0 -4 4 -2 9 5 4 7 31 19 60 27 29 7 61
21 70 29 10 9 45 27 78 40 58 23 153 85 182 119 7 9 30 21 51 27 20 5 47 19
60 30 12 11 32 22 44 26 11 3 42 28 68 55 26 27 52 49 59 49 6 0 20 11 31 25
11 14 26 25 35 25 8 0 32 13 52 29 20 15 50 35 67 44 16 9 48 33 70 54 21 21
52 45 67 53 28 14 95 81 132 133 11 15 36 38 55 51 51 35 124 107 140 139 8
16 26 39 40 51 14 12 30 31 36 41 6 10 19 23 29 29 27 16 55 44 55 56 0 5 18
21 39 35 21 15 51 46 66 70 16 24 41 53 56 64 29 22 82 98 111 161 9 19 33 49
52 67 20 17 36 36 36 42 0 5 8 16 18 23 20 14 58 68 48 68 -10 0 31 75 48 89
9 8 16 21 16 30 0 10 16 31 35 48 19 17 35 38 35 45 0 8 14 28 30 44 17 16 42
52 55 80 14 28 36 64 50 80 14 16 25 35 25 42 0 6 4 12 8 12 5 0 9 6 9 13 2
24 48 137 65 156 10 11 27 39 39 63 12 23 28 48 35 56 8 7 14 19 15 25 4 57
24 117 39 117 5 0 10 14 10 30 0 17 5 30 12 30 6 0 9 3 5 6 -3 3 3 16 14 27
11 12 23 33 26 47 4 14 19 42 35 64 15 21 28 48 28 58 0 11 13 44 30 74 26 49
51 115 56 154 1 8 4 32 7 54 3 21 12 45 19 55 22 27 38 60 38 76 0 9 8 27 17
41 9 14 17 49 18 78 2 29 8 62 14 74 6 11 11 30 11 41 0 11 9 35 19 53 10 18
22 49 26 68 4 19 14 45 23 58 8 12 16 39 17 60 2 20 4 38 5 40 2 1 3 5 5 10 5
18 17 48 26 65 6 10 12 40 14 65 3 26 6 72 9 103 3 31 11 71 19 90 31 72 45
138 37 172 -4 22 -3 48 5 71 7 20 11 45 8 54 -2 10 3 31 11 47 9 17 16 44 16
61 0 17 6 47 14 65 8 19 14 53 14 76 1 22 6 61 13 85 14 48 19 162 8 193 -3
11 0 43 7 70 7 28 16 77 19 110 4 33 8 62 11 64 2 2 -1 11 -6 21 -10 19 -12
60 -4 135 21 224 25 420 9 497 -7 34 -11 80 -8 102 7 84 5 184 -6 205 -7 12
-13 45 -15 74 -3 28 -6 61 -9 72 -2 11 -1 25 4 31 5 6 6 26 3 45 -7 45 -7 69
-2 99 3 14 1 40 -4 58 -5 18 -11 66 -12 105 -3 77 -6 93 -31 168 -9 26 -16 64
-15 85 1 71 -12 149 -32 194 -11 25 -20 58 -20 75 0 16 -3 34 -8 40 -8 9 -16
68 -24 178 -2 27 -9 60 -15 75 -11 29 -20 67 -26 117 -5 45 -13 69 -48 145
-12 25 -22 52 -23 60 -1 8 -4 31 -7 51 -2 20 -8 42 -12 49 -4 7 -10 29 -12 49
-3 20 -11 43 -18 51 -19 22 -41 73 -40 90 1 8 -5 22 -12 31 -8 9 -16 35 -18
57 -2 22 -11 54 -19 71 -9 16 -16 45 -16 63 0 18 -9 48 -20 66 -11 17 -25 53
-31 80 -14 55 -51 133 -85 178 -13 18 -26 47 -29 65 -3 18 -12 47 -20 64 -7
16 -18 45 -23 62 -6 18 -24 47 -41 65 -16 18 -33 44 -36 58 -4 14 -13 32 -21
41 -8 9 -17 26 -19 38 -8 42 -18 66 -36 90 -11 13 -19 33 -19 45 0 12 -15 43
-34 69 -19 26 -37 59 -41 74 -7 31 -73 129 -109 162 -14 14 -26 28 -26 32 0 4
-5 20 -12 36 -6 15 -11 31 -10 36 1 4 -2 7 -8 7 -5 0 -21 21 -34 48 -13 26
-38 58 -56 70 -17 13 -38 39 -46 58 -8 19 -19 34 -24 34 -5 0 -21 23 -35 50
-14 28 -35 60 -45 70 -11 11 -20 27 -20 35 0 9 -17 34 -39 58 -21 23 -50 60
-64 83 -30 49 -78 100 -130 139 -21 15 -44 40 -52 55 -8 15 -23 38 -34 51 -12
13 -30 36 -41 51 -12 15 -37 35 -57 45 -20 9 -43 29 -52 45 -9 15 -21 28 -28
28 -7 0 -20 12 -30 26 -10 15 -38 48 -63 73 -25 26 -54 59 -64 74 -10 15 -24
27 -31 27 -7 0 -32 21 -56 48 -48 52 -79 76 -153 117 -27 15 -66 44 -86 64
-69 67 -98 91 -127 102 -61 25 -78 35 -91 52 -7 9 -21 17 -30 17 -10 0 -32 16
-51 35 -18 19 -39 35 -46 35 -7 0 -29 15 -47 33 -19 18 -50 39 -69 47 -19 7
-55 28 -80 46 -25 18 -88 47 -140 65 -52 17 -96 34 -99 38 -9 12 -59 41 -71
41 -6 0 -24 9 -40 21 -17 12 -50 22 -75 24 -25 2 -56 11 -70 19 -13 9 -33 16
-45 16 -11 0 -33 9 -48 19 -14 10 -46 24 -71 31 -25 6 -52 18 -60 26 -9 7 -34
16 -55 20 -21 3 -62 15 -90 26 -54 23 -64 25 -175 33 -41 4 -86 11 -100 16
-64 24 -137 36 -195 33 -35 -2 -74 0 -88 5 -13 5 -30 5 -37 1 -8 -5 -22 -4
-34 2 -11 6 -44 12 -73 14 -30 2 -58 6 -64 9 -16 10 -281 13 -319 3z m260 -81
c30 4 60 5 65 4 6 -2 35 -5 65 -6 77 -3 170 -15 200 -25 25 -8 81 -18 155 -25
22 -2 51 -7 65 -11 14 -3 39 -8 57 -10 18 -1 42 -8 55 -15 12 -6 45 -14 72
-16 28 -3 69 -13 93 -24 23 -10 62 -21 85 -24 45 -4 110 -23 192 -57 27 -11
57 -21 67 -23 11 -2 33 -13 49 -25 16 -12 40 -23 52 -25 13 -3 37 -11 53 -19
80 -38 143 -66 150 -66 4 0 22 -10 39 -23 17 -13 54 -32 83 -42 29 -10 63 -29
77 -42 14 -13 50 -32 81 -44 30 -11 55 -24 55 -28 0 -4 20 -17 44 -29 46 -22
114 -69 179 -123 20 -18 46 -37 56 -43 26 -15 105 -70 127 -90 11 -8 42 -36
70 -61 28 -25 56 -45 61 -45 6 0 34 -25 64 -55 30 -31 71 -65 91 -75 20 -11
39 -29 43 -39 3 -11 14 -22 23 -25 19 -6 57 -42 115 -108 20 -24 73 -81 116
-128 43 -47 97 -105 120 -130 22 -25 41 -49 41 -55 0 -5 20 -29 45 -53 25 -23
52 -57 61 -75 16 -31 62 -77 76 -77 4 0 10 -10 13 -22 4 -13 20 -36 35 -53 31
-34 74 -97 107 -157 27 -49 68 -112 101 -152 12 -15 29 -44 37 -62 8 -19 18
-34 23 -34 5 0 15 -18 22 -40 7 -22 20 -47 29 -57 32 -35 60 -80 54 -87 -3 -3
-1 -6 5 -6 7 0 11 -3 11 -7 -4 -24 5 -42 36 -76 19 -21 35 -45 35 -54 0 -8 8
-27 18 -41 26 -37 96 -182 99 -205 2 -11 12 -32 23 -47 11 -16 20 -33 20 -39
0 -6 13 -35 30 -66 16 -30 27 -55 24 -55 -3 0 3 -15 14 -32 11 -18 23 -49 27
-68 4 -19 15 -46 25 -60 17 -24 35 -77 32 -92 -1 -5 3 -8 9 -8 5 0 8 -4 4 -10
-6 -9 9 -41 33 -72 8 -9 16 -31 18 -48 3 -18 14 -47 24 -65 10 -18 21 -46 23
-62 2 -15 10 -41 17 -58 7 -16 14 -43 15 -60 2 -16 15 -64 29 -105 15 -41 29
-82 31 -90 2 -8 4 -17 5 -20 1 -3 2 -8 1 -12 0 -4 4 -20 11 -35 6 -15 12 -47
14 -71 1 -24 7 -49 12 -55 14 -18 31 -76 36 -122 2 -22 13 -60 25 -85 12 -28
16 -49 11 -54 -6 -6 -6 -14 1 -22 5 -6 12 -23 15 -35 14 -58 26 -129 34 -194
12 -99 19 -135 31 -173 6 -18 9 -35 6 -38 -2 -3 1 -31 8 -62 6 -32 8 -67 5
-77 -4 -11 -4 -24 0 -30 12 -15 21 -74 21 -130 0 -27 4 -64 9 -80 13 -41 21
-126 26 -265 1 -63 6 -167 9 -230 4 -63 6 -133 5 -155 -2 -22 -2 -51 -1 -65 1
-14 2 -52 2 -85 -1 -33 -1 -73 -1 -90 -1 -16 2 -66 4 -110 3 -44 6 -84 6 -90
2 -30 -11 -158 -16 -167 -3 -5 -8 -51 -9 -101 -5 -123 -14 -222 -23 -249 -4
-13 -7 -45 -6 -73 2 -27 -2 -65 -8 -83 -14 -48 -16 -64 -8 -92 4 -14 3 -36 -3
-50 -5 -14 -11 -47 -13 -75 -4 -58 -26 -167 -43 -209 -7 -16 -11 -36 -10 -45
2 -9 0 -29 -4 -46 -4 -16 -10 -47 -12 -68 -3 -21 -10 -47 -15 -57 -6 -10 -10
-34 -10 -52 0 -19 -6 -42 -14 -53 -7 -11 -16 -49 -20 -85 -3 -36 -11 -66 -16
-68 -6 -2 -10 -12 -10 -23 0 -10 -4 -19 -8 -19 -4 0 -7 -20 -7 -44 1 -24 -3
-54 -8 -67 -6 -13 -16 -46 -23 -74 -26 -107 -46 -171 -59 -185 -7 -8 -16 -31
-20 -50 -4 -19 -11 -39 -15 -45 -5 -5 -10 -23 -13 -40 -11 -61 -67 -205 -81
-205 -4 0 -6 -6 -3 -14 3 -8 3 -17 -1 -21 -4 -4 -7 -10 -7 -13 -2 -24 -19 -70
-36 -94 -11 -15 -22 -40 -25 -55 -9 -56 -16 -78 -27 -85 -7 -4 -12 -11 -12
-15 -1 -18 -30 -91 -52 -132 -12 -24 -23 -50 -23 -56 0 -7 -7 -18 -15 -25 -15
-12 -85 -151 -85 -167 0 -5 -11 -25 -25 -45 -14 -20 -25 -42 -25 -49 0 -6 -13
-28 -29 -48 -15 -20 -34 -53 -41 -74 -7 -21 -25 -54 -41 -72 -16 -18 -36 -52
-44 -76 -9 -24 -22 -50 -29 -59 -8 -8 -24 -35 -36 -59 -12 -24 -33 -56 -46
-70 -13 -14 -27 -35 -30 -45 -4 -11 -19 -30 -35 -43 -15 -13 -31 -33 -35 -45
-3 -12 -17 -33 -30 -47 -13 -14 -24 -30 -24 -36 0 -5 -13 -24 -29 -41 -16 -17
-36 -45 -45 -62 -9 -17 -29 -41 -45 -53 -16 -12 -32 -32 -35 -44 -3 -13 -28
-45 -54 -72 -27 -26 -56 -61 -64 -77 -22 -42 -133 -163 -264 -287 -32 -32 -66
-65 -75 -75 -9 -11 -44 -44 -79 -74 -35 -30 -77 -70 -94 -89 -17 -19 -51 -46
-75 -62 -23 -15 -59 -46 -78 -68 -19 -23 -41 -41 -48 -41 -8 0 -20 -8 -27 -19
-7 -10 -35 -33 -63 -52 -27 -18 -60 -42 -73 -53 -12 -11 -32 -21 -44 -23 -13
-2 -34 -15 -48 -28 -14 -14 -31 -25 -37 -25 -6 0 -21 -10 -34 -23 -13 -13 -40
-32 -59 -43 -19 -10 -50 -29 -68 -41 -19 -13 -41 -23 -49 -23 -8 0 -33 -15
-54 -34 -22 -18 -59 -39 -83 -46 -23 -6 -56 -24 -72 -39 -16 -15 -42 -31 -59
-35 -16 -4 -40 -15 -54 -25 -31 -21 -91 -43 -91 -33 0 4 -4 3 -8 -3 -13 -18
-55 -38 -85 -40 -27 -3 -67 -17 -147 -53 -19 -8 -39 -16 -45 -18 -5 -1 -30 -9
-55 -17 -25 -9 -63 -18 -84 -21 -22 -4 -44 -10 -50 -15 -18 -14 -78 -30 -121
-33 -22 -1 -58 -12 -79 -24 -29 -17 -44 -20 -58 -13 -13 7 -18 6 -18 -2 0 -7
-3 -10 -6 -6 -3 3 -18 1 -33 -4 -29 -12 -74 -18 -176 -25 -38 -2 -90 -7 -115
-10 -135 -16 -411 -26 -429 -15 -8 5 -36 3 -67 -4 -30 -7 -57 -9 -59 -5 -3 5
-31 8 -63 8 -64 0 -195 16 -212 27 -6 4 -25 8 -43 10 -72 8 -124 15 -152 20
-16 3 -47 8 -68 10 -21 3 -50 11 -65 19 -15 7 -52 16 -82 19 -30 3 -70 13 -89
23 -18 9 -56 18 -83 20 -28 2 -55 7 -61 12 -10 8 -55 21 -84 24 -5 1 -29 12
-55 25 -26 13 -50 22 -55 21 -4 -2 -25 7 -45 20 -20 13 -46 25 -57 27 -12 2
-31 11 -43 19 -12 9 -29 16 -38 16 -8 0 -49 18 -90 40 -68 35 -119 60 -190 93
-14 6 -36 21 -50 33 -14 12 -43 27 -65 34 -22 7 -53 23 -68 36 -16 13 -34 24
-40 24 -7 0 -32 16 -56 35 -24 19 -47 35 -52 35 -4 0 -28 17 -53 38 -24 20
-61 48 -81 62 -20 14 -43 32 -52 40 -9 8 -18 13 -21 11 -5 -4 -66 44 -117 94
-23 22 -57 48 -76 58 -19 11 -47 36 -62 56 -15 20 -47 48 -72 61 -24 13 -46
32 -48 42 -3 10 -13 21 -24 25 -18 6 -153 142 -153 154 0 3 -34 41 -76 85
-111 116 -129 136 -150 169 -10 16 -36 45 -56 65 -21 19 -38 41 -38 48 0 6 -3
12 -8 12 -4 0 -13 12 -19 28 -7 15 -26 36 -43 47 -17 11 -33 28 -36 38 -3 10
-24 40 -47 66 -43 49 -66 84 -103 154 -12 22 -29 50 -38 61 -32 40 -66 91 -88
134 -12 23 -26 42 -30 42 -8 0 -43 76 -37 82 1 2 -11 17 -28 33 -16 17 -38 53
-48 80 -10 28 -34 67 -52 88 -18 20 -33 45 -33 56 0 10 -7 24 -15 31 -8 7 -15
19 -15 26 0 8 -4 14 -10 14 -5 0 -10 6 -10 13 0 7 -13 40 -30 72 -16 32 -31
68 -33 80 -1 13 -8 29 -14 36 -15 18 -67 132 -65 142 1 4 -2 7 -8 7 -5 0 -10
10 -10 22 0 12 -7 29 -15 38 -9 10 -19 35 -22 56 -3 22 -11 46 -18 54 -17 21
-43 80 -49 110 -7 40 -23 75 -40 89 -9 7 -16 24 -16 38 0 13 -9 41 -20 62 -10
22 -22 53 -25 71 -3 18 -12 45 -20 61 -8 15 -15 38 -15 51 0 24 -22 99 -46
156 -8 18 -17 50 -20 70 -3 20 -11 45 -16 56 -6 10 -11 38 -13 62 -1 24 -7 49
-12 56 -13 17 -23 53 -30 108 -3 25 -10 56 -16 70 -6 14 -10 28 -9 33 1 4 -2
7 -7 7 -5 0 -7 13 -6 29 1 15 -4 44 -12 62 -9 19 -16 50 -18 69 -1 19 -5 47
-9 62 -4 14 -9 48 -10 75 -2 26 -6 62 -10 78 -4 17 -11 48 -17 70 -10 42 -17
95 -23 185 -2 30 -8 66 -14 80 -5 14 -8 48 -7 75 1 28 -4 72 -12 98 -8 27 -13
57 -10 68 3 11 1 34 -4 52 -5 18 -12 109 -15 202 -12 391 -14 452 -13 485 2
60 2 104 0 140 -1 19 -1 42 0 50 0 8 1 42 0 75 -1 87 4 159 12 172 4 7 10 63
13 125 6 148 11 202 19 229 4 11 8 51 9 87 1 37 6 81 10 97 4 17 9 59 11 95 8
118 11 145 17 155 3 6 9 35 13 65 4 30 11 60 15 65 5 6 11 28 14 50 3 22 13
74 21 115 8 41 17 92 20 113 2 22 9 45 15 52 6 7 13 33 16 57 8 71 11 84 29
118 9 18 18 57 20 86 1 30 8 60 14 68 6 8 11 18 10 22 -1 5 0 11 1 14 1 3 4
16 5 30 4 32 31 113 57 170 11 25 22 52 23 62 7 35 68 215 86 253 11 22 26 65
35 95 9 30 24 66 34 80 10 14 21 47 25 73 4 26 16 58 26 71 11 13 19 30 19 37
0 13 51 129 75 169 8 14 39 75 69 137 30 61 59 114 65 117 6 4 8 12 6 19 -3 7
8 27 24 46 16 18 34 50 40 71 6 20 27 58 47 84 19 26 42 67 51 91 8 25 19 45
24 45 6 0 17 17 26 38 8 20 31 59 52 85 20 27 35 50 33 53 -2 3 12 19 30 36
18 17 40 43 48 58 24 44 66 103 94 133 14 15 25 32 23 36 -1 5 15 25 35 45 21
20 45 50 53 66 8 16 34 48 57 70 23 22 47 51 52 65 6 14 29 46 51 70 64 71
158 168 190 196 17 15 61 59 98 98 37 39 72 71 77 71 6 0 10 6 10 13 0 6 20
25 45 40 25 16 45 33 45 37 0 14 62 68 90 80 14 6 36 27 50 46 14 19 36 41 50
49 14 7 43 29 65 49 22 20 44 36 50 36 5 0 23 14 41 31 17 17 38 32 45 33 28
6 54 20 70 38 9 10 21 18 26 18 5 0 18 8 29 18 11 10 42 31 69 47 28 16 56 35
64 43 7 7 26 15 41 18 15 3 42 19 61 35 19 16 60 39 91 50 31 12 67 32 79 45
12 13 28 24 34 24 7 0 36 13 66 29 30 15 72 34 94 41 22 7 42 17 45 21 4 5 25
11 49 14 24 3 53 12 64 20 12 8 28 15 37 15 8 0 31 8 50 19 19 10 51 22 70 26
19 4 40 11 45 15 6 5 28 11 50 13 22 2 60 14 85 25 25 11 65 22 90 23 25 1 63
13 86 25 26 14 46 19 55 14 8 -5 19 -4 26 2 7 6 13 8 13 4 0 -3 12 -1 26 5 31
11 92 19 189 24 39 2 70 5 70 6 0 1 16 3 35 5 19 1 73 7 120 13 47 5 101 7
120 5 19 -2 58 0 85 4 28 5 64 4 80 0 17 -5 55 -5 85 -1z"/>
<path d="M5958 11855 c-1 -2 -19 -4 -38 -6 -19 -2 -39 -6 -45 -10 -5 -3 -64
-6 -130 -7 -99 -1 -127 -4 -160 -21 -22 -11 -44 -16 -49 -11 -5 5 -20 4 -35
-2 -14 -6 -44 -12 -66 -13 -96 -7 -163 -18 -198 -31 -20 -8 -51 -14 -67 -14
-38 0 -112 -24 -174 -57 -28 -15 -59 -27 -70 -28 -17 -1 -79 -13 -106 -20 -23
-6 -67 -29 -93 -49 -18 -14 -45 -27 -61 -30 -16 -3 -32 -10 -36 -16 -4 -6 -15
-12 -26 -14 -11 -2 -38 -12 -60 -21 -21 -9 -60 -23 -85 -31 -26 -8 -52 -21
-59 -29 -6 -8 -37 -24 -68 -35 -53 -20 -127 -69 -179 -119 -13 -12 -23 -19
-23 -15 0 3 -7 1 -15 -6 -8 -7 -15 -9 -15 -5 0 4 -15 -3 -32 -17 -18 -13 -46
-30 -63 -38 -16 -8 -49 -33 -72 -55 -64 -62 -105 -95 -117 -95 -6 0 -26 -13
-44 -29 -17 -16 -41 -33 -54 -36 -12 -4 -42 -26 -67 -49 -25 -24 -62 -53 -81
-67 -59 -40 -91 -72 -111 -110 -10 -21 -35 -47 -55 -60 -51 -31 -128 -108
-147 -145 -9 -17 -27 -39 -41 -48 -15 -9 -26 -23 -26 -30 0 -7 -16 -24 -35
-37 -19 -13 -40 -34 -47 -47 -7 -13 -24 -30 -39 -38 -15 -7 -37 -30 -49 -49
-12 -20 -43 -57 -68 -84 -25 -26 -61 -77 -81 -113 -20 -36 -64 -98 -98 -137
-38 -43 -66 -86 -73 -110 -5 -21 -17 -44 -26 -52 -8 -7 -22 -26 -31 -43 -9
-17 -24 -36 -33 -43 -10 -7 -23 -27 -31 -45 -7 -18 -23 -42 -35 -53 -12 -11
-32 -41 -43 -66 -12 -25 -31 -56 -42 -68 -22 -23 -58 -99 -79 -166 -7 -22 -19
-47 -26 -56 -15 -16 -54 -84 -78 -134 -8 -16 -18 -47 -21 -67 -3 -21 -12 -44
-20 -51 -8 -8 -16 -26 -17 -40 -2 -14 -11 -34 -21 -44 -9 -10 -23 -36 -32 -57
-9 -21 -25 -51 -36 -65 -11 -15 -21 -39 -23 -53 -1 -14 -15 -49 -31 -79 -28
-55 -47 -110 -46 -141 0 -10 -4 -20 -9 -23 -5 -3 -6 -13 -3 -21 3 -9 -6 -39
-20 -68 -51 -101 -66 -142 -66 -181 1 -22 -6 -53 -14 -69 -9 -16 -13 -34 -11
-41 3 -7 -4 -28 -15 -46 -12 -19 -21 -42 -21 -52 0 -10 -9 -36 -20 -58 -12
-22 -23 -57 -25 -78 -2 -20 -13 -61 -25 -91 -13 -32 -24 -88 -27 -139 -3 -48
-10 -92 -16 -98 -5 -7 -6 -13 -2 -13 4 0 2 -6 -4 -13 -6 -8 -13 -30 -15 -51
-3 -20 -8 -42 -12 -48 -4 -6 -9 -41 -10 -77 -4 -91 -10 -129 -27 -176 -8 -22
-12 -46 -10 -53 3 -7 -2 -31 -11 -53 -9 -21 -16 -61 -16 -87 -1 -26 -6 -63
-13 -82 -11 -32 -13 -148 -4 -195 3 -11 0 -28 -5 -38 -11 -22 -22 -116 -20
-172 4 -91 1 -181 -6 -210 -5 -16 -6 -41 -2 -55 3 -14 1 -41 -5 -60 -6 -20
-10 -95 -8 -175 2 -144 5 -173 15 -190 3 -6 3 -32 -1 -60 -10 -72 -7 -144 8
-188 7 -22 11 -51 8 -67 -4 -15 -3 -30 0 -34 3 -3 7 -61 9 -128 5 -205 12
-295 24 -317 6 -12 8 -21 6 -21 -3 0 2 -19 10 -42 8 -24 15 -61 15 -83 1 -71
19 -176 34 -198 8 -12 15 -40 15 -64 0 -23 4 -44 9 -47 5 -4 9 -25 9 -49 0
-23 5 -53 10 -67 5 -14 8 -41 7 -60 -1 -19 4 -49 11 -65 7 -17 15 -51 19 -75
3 -25 11 -63 17 -85 6 -22 11 -43 10 -47 -1 -5 2 -8 8 -8 6 0 9 -3 8 -7 -1 -5
5 -22 14 -38 9 -17 17 -48 19 -70 1 -22 6 -47 10 -55 4 -8 10 -31 13 -51 7
-47 16 -69 38 -98 10 -13 18 -35 18 -50 0 -14 7 -35 15 -45 8 -11 15 -30 15
-43 0 -12 7 -40 15 -60 8 -21 17 -51 18 -68 2 -16 13 -48 24 -70 11 -22 24
-58 28 -80 6 -38 46 -120 84 -175 10 -14 21 -38 25 -55 4 -16 14 -43 21 -60 7
-16 16 -42 19 -57 3 -15 22 -44 41 -65 19 -21 35 -47 35 -59 0 -11 9 -29 20
-39 10 -9 18 -20 17 -24 -4 -11 26 -91 34 -91 4 0 10 -15 14 -33 4 -17 17 -48
30 -67 13 -19 33 -60 46 -90 13 -30 25 -57 29 -60 3 -3 17 -21 32 -40 14 -19
36 -45 48 -58 12 -13 26 -39 31 -57 6 -19 16 -40 23 -48 8 -7 23 -31 34 -54
12 -22 33 -48 47 -57 15 -10 33 -33 41 -51 8 -19 23 -39 34 -45 11 -6 20 -18
20 -28 0 -9 16 -37 35 -61 19 -24 35 -50 35 -57 0 -8 17 -33 38 -55 20 -23 46
-56 57 -74 28 -45 74 -95 118 -129 21 -16 49 -49 63 -73 14 -23 30 -43 34 -43
5 0 15 -12 22 -27 7 -15 29 -37 48 -49 19 -13 41 -29 49 -37 7 -8 23 -24 35
-36 11 -12 28 -29 36 -38 72 -80 109 -119 134 -142 16 -14 52 -49 80 -76 28
-28 80 -68 116 -90 36 -22 81 -55 101 -75 61 -59 103 -92 129 -103 53 -21 75
-33 92 -49 10 -10 22 -18 28 -18 5 0 23 -13 38 -30 16 -16 34 -30 40 -30 6 0
32 -18 57 -40 25 -22 53 -40 62 -40 9 0 40 -18 69 -40 29 -22 57 -40 62 -40 5
0 30 -9 54 -20 25 -11 54 -21 65 -23 11 -1 32 -11 46 -20 64 -42 174 -94 191
-91 11 1 39 -6 62 -17 24 -10 48 -19 53 -19 6 0 25 -9 43 -20 18 -11 40 -20
48 -20 8 0 33 -10 55 -21 22 -12 53 -23 70 -26 16 -2 59 -16 95 -30 48 -19 86
-26 146 -28 45 -1 88 -6 95 -11 15 -9 29 -13 69 -18 14 -2 36 -8 50 -14 14 -5
51 -7 82 -5 31 2 65 0 75 -5 12 -7 25 -7 36 0 12 6 22 6 31 -1 8 -6 38 -13 67
-15 30 -2 68 -7 84 -10 68 -13 239 -13 298 -1 34 7 107 13 162 12 74 0 114 5
148 18 25 9 52 15 59 13 7 -3 24 -1 38 5 14 5 43 11 65 12 79 5 170 18 188 27
10 5 40 12 65 15 55 6 119 26 184 59 26 13 64 26 85 29 21 3 47 10 58 14 11 5
38 14 61 20 22 6 53 22 69 35 15 13 43 27 61 31 18 3 34 10 36 16 2 5 17 12
33 15 17 3 47 14 67 24 21 11 50 22 64 24 15 3 43 16 63 30 20 14 55 32 79 40
23 8 57 27 76 41 18 14 39 25 46 25 7 0 10 3 7 6 -10 11 62 63 104 76 22 6 39
15 39 19 0 5 19 18 43 30 23 12 57 39 75 60 19 22 40 39 47 39 8 0 20 9 28 21
8 11 22 21 31 23 8 1 32 16 53 32 21 17 52 38 70 47 17 9 38 26 45 36 8 11 38
35 68 55 48 31 140 129 140 148 0 4 18 20 40 34 52 35 120 100 150 144 14 19
35 43 47 53 13 10 23 25 23 33 0 8 4 14 10 14 12 0 80 65 80 77 0 4 13 15 29
24 15 9 45 41 65 72 20 30 43 58 51 60 16 7 89 113 100 146 4 13 23 40 41 60
66 70 114 136 114 157 0 12 14 38 30 59 16 21 30 44 30 51 0 7 8 18 19 23 10
6 26 27 36 48 10 21 28 47 41 58 13 11 32 40 43 65 12 25 36 66 54 91 18 25
43 77 56 115 12 38 33 83 45 99 12 17 30 45 39 63 9 17 23 44 31 60 8 15 17
44 20 65 3 21 15 47 25 59 11 11 17 27 14 35 -3 8 3 24 14 36 11 12 26 38 33
57 8 19 24 49 36 65 12 17 25 46 29 65 7 32 32 87 45 100 9 9 38 113 45 163 4
26 10 47 14 47 7 0 32 53 35 75 1 8 10 23 21 35 14 15 18 36 18 82 0 41 5 67
14 76 8 8 13 25 11 37 -1 12 3 29 10 38 7 8 15 24 17 36 3 12 7 30 9 40 3 10
12 34 21 52 10 17 19 50 22 73 2 23 13 60 23 83 19 42 28 99 32 183 0 25 7 56
14 70 6 14 14 40 17 57 3 17 9 38 13 45 5 7 10 42 11 78 3 91 9 139 26 185 8
22 12 45 10 52 -2 6 3 28 11 48 9 21 16 56 16 79 0 22 6 64 14 91 12 47 15
190 3 201 -3 3 3 31 12 62 16 54 20 171 9 217 -3 11 -3 24 0 30 4 5 8 35 9 65
2 30 5 78 8 105 12 153 13 314 1 370 -7 34 -11 109 -10 175 1 65 -2 120 -7
127 -6 6 -12 65 -15 130 -2 65 -5 123 -5 128 -1 6 1 22 4 37 3 15 2 42 -3 60
-5 18 -11 67 -14 108 -9 134 -14 163 -27 171 -8 5 -14 30 -15 66 -2 95 -14
174 -30 198 -14 22 -18 44 -28 157 -3 25 -9 55 -14 65 -6 10 -9 36 -7 57 3 21
-2 51 -10 65 -7 15 -16 47 -19 72 -9 73 -28 134 -59 195 -8 16 -17 49 -20 74
-3 25 -10 58 -16 73 -6 16 -11 38 -11 51 0 12 -13 40 -29 61 -16 22 -27 45
-24 52 3 7 -2 27 -11 44 -9 18 -16 40 -16 49 0 10 -7 35 -16 56 -10 22 -18 54
-19 72 -2 18 -8 39 -15 47 -7 8 -10 15 -6 15 4 0 0 10 -8 23 -8 12 -17 38 -21
57 -8 39 -55 143 -67 148 -4 2 -8 9 -8 17 0 7 -6 18 -14 24 -8 7 -19 31 -24
54 -18 74 -50 147 -81 183 -17 19 -31 45 -31 58 0 13 -6 26 -13 29 -7 3 -19
24 -26 47 -7 23 -21 56 -32 73 -10 18 -19 41 -19 51 0 11 -11 34 -25 51 -13
18 -36 59 -50 90 -14 32 -49 88 -79 124 -29 36 -60 83 -67 105 -8 21 -20 41
-26 43 -7 3 -13 11 -13 18 0 22 -44 83 -63 88 -10 3 -25 24 -35 46 -9 22 -22
41 -28 41 -7 0 -19 17 -27 38 -8 21 -23 44 -32 52 -9 7 -24 32 -35 54 -10 23
-37 60 -59 84 -23 24 -41 48 -41 55 0 11 -79 97 -131 143 -13 11 -49 55 -79
97 -37 50 -67 81 -91 92 -19 9 -43 29 -52 45 -10 16 -26 32 -37 35 -11 4 -20
12 -20 18 0 11 -27 41 -116 131 -118 118 -185 173 -241 195 -18 8 -33 17 -33
22 0 17 -151 137 -180 142 -16 4 -39 16 -50 27 -12 12 -35 26 -51 32 -16 5
-29 14 -29 19 0 5 -24 24 -53 43 -29 19 -58 41 -65 49 -7 8 -27 21 -45 28 -18
7 -52 27 -77 44 -25 17 -61 38 -80 45 -19 7 -39 17 -45 21 -5 3 -26 10 -45 14
-19 4 -47 16 -62 27 -15 10 -42 25 -60 34 -18 8 -49 24 -68 34 -19 11 -51 19
-70 20 -19 0 -44 7 -54 15 -11 8 -29 15 -40 15 -12 0 -32 9 -46 20 -14 11 -33
20 -43 20 -9 0 -40 12 -68 26 -27 15 -62 26 -77 26 -15 0 -40 7 -56 15 -47 24
-85 33 -176 39 -47 4 -89 10 -95 14 -5 5 -39 14 -75 20 -36 7 -73 17 -82 21
-9 5 -19 5 -22 1 -8 -13 -75 -13 -97 -1 -12 6 -25 6 -36 1 -10 -6 -27 -5 -47
3 -17 7 -47 11 -66 10 -19 -1 -39 1 -45 5 -5 4 -39 8 -75 9 -36 0 -93 3 -127
5 -33 3 -63 3 -65 1z m182 -179 c22 6 42 8 45 5 4 -3 36 -7 73 -8 88 -2 138
-8 187 -21 51 -13 135 -26 155 -23 9 1 34 -5 55 -12 22 -8 45 -12 52 -10 6 2
24 -2 40 -10 15 -8 52 -17 81 -21 29 -3 70 -15 90 -25 20 -10 54 -19 75 -19
21 -1 43 -5 50 -9 13 -8 27 -12 65 -18 13 -2 34 -10 47 -19 13 -9 29 -16 36
-16 6 0 41 -14 77 -31 37 -18 81 -38 97 -45 17 -7 55 -24 86 -38 31 -14 60
-26 65 -26 5 0 27 -14 48 -30 22 -17 46 -30 54 -30 17 0 92 -41 92 -51 0 -7
55 -32 79 -36 7 -1 23 -10 35 -20 11 -11 33 -24 48 -30 30 -13 104 -67 163
-118 22 -19 46 -35 53 -35 6 0 12 -4 12 -9 0 -4 21 -22 48 -40 79 -52 110 -77
137 -110 15 -17 32 -31 38 -31 7 0 42 -29 79 -65 38 -36 74 -65 82 -65 8 0 17
-8 20 -18 3 -10 16 -24 28 -32 31 -20 138 -128 138 -138 0 -5 17 -25 38 -45
20 -20 56 -58 80 -84 23 -26 58 -66 77 -87 19 -21 35 -43 35 -48 0 -5 14 -21
31 -35 16 -14 45 -50 64 -79 19 -29 45 -60 59 -69 14 -9 28 -27 32 -38 3 -12
14 -29 23 -37 22 -19 111 -148 111 -161 0 -10 53 -92 93 -143 12 -16 26 -40
31 -54 5 -15 17 -35 27 -45 9 -10 20 -30 24 -44 3 -14 15 -34 27 -46 11 -12
33 -49 48 -82 15 -33 39 -73 53 -89 14 -17 24 -33 21 -38 -3 -5 9 -26 26 -48
17 -22 29 -40 26 -40 -4 0 7 -26 23 -57 16 -32 32 -72 35 -90 4 -17 14 -37 22
-44 8 -6 14 -18 14 -26 0 -9 11 -36 24 -62 45 -88 66 -138 66 -155 0 -10 11
-36 24 -59 14 -23 28 -58 31 -77 7 -42 45 -120 58 -120 5 0 7 -6 4 -14 -3 -7
5 -36 17 -63 13 -27 22 -61 20 -75 -1 -15 6 -36 17 -49 10 -12 19 -34 19 -49
0 -15 12 -58 26 -96 33 -89 44 -124 38 -124 -3 0 0 -9 6 -21 7 -11 14 -33 16
-47 12 -76 16 -92 29 -118 7 -16 16 -53 18 -81 3 -29 10 -60 18 -69 7 -9 14
-30 14 -48 1 -18 4 -37 7 -42 8 -13 21 -66 23 -89 1 -11 5 -35 9 -53 4 -19 10
-55 12 -80 5 -68 13 -113 24 -148 6 -18 10 -36 8 -40 -1 -5 2 -29 6 -54 5 -25
8 -57 7 -72 -1 -14 4 -48 12 -75 7 -26 12 -66 11 -88 -2 -22 1 -54 7 -72 12
-39 18 -91 25 -248 6 -133 15 -496 13 -535 -1 -14 -1 -36 -1 -50 2 -183 2
-262 -2 -300 -3 -25 -7 -81 -10 -125 -8 -124 -15 -185 -21 -196 -4 -5 -1 -9 5
-9 7 0 7 -7 -1 -22 -7 -12 -12 -57 -13 -100 0 -43 -3 -78 -6 -78 -7 0 -7 4
-23 -227 -3 -34 -9 -67 -13 -75 -5 -7 -9 -26 -10 -43 -1 -16 -6 -42 -12 -57
-11 -26 -21 -82 -26 -143 -3 -28 -10 -56 -38 -157 -6 -24 -13 -59 -15 -78 -2
-19 -13 -62 -25 -95 -11 -33 -21 -73 -20 -89 0 -16 -4 -38 -9 -48 -6 -10 -12
-31 -14 -46 -9 -58 -37 -145 -66 -208 -10 -22 -19 -50 -19 -61 0 -11 -7 -26
-15 -33 -8 -7 -15 -27 -15 -46 0 -32 -10 -61 -50 -149 -11 -22 -24 -59 -30
-82 -6 -23 -22 -61 -35 -85 -14 -24 -25 -57 -25 -74 0 -17 -7 -37 -15 -44 -8
-7 -20 -31 -26 -54 -6 -22 -16 -45 -23 -51 -6 -5 -18 -30 -25 -54 -7 -25 -24
-60 -38 -77 -13 -18 -26 -39 -27 -46 -2 -14 -39 -98 -59 -133 -6 -11 -17 -33
-26 -50 -8 -16 -24 -43 -36 -60 -13 -16 -28 -46 -34 -65 -6 -19 -27 -55 -46
-79 -19 -24 -37 -58 -41 -77 -3 -19 -10 -34 -15 -34 -5 0 -22 -27 -39 -60 -17
-33 -34 -60 -39 -60 -5 0 -12 -11 -15 -25 -4 -14 -11 -25 -16 -25 -6 0 -10 -4
-10 -9 0 -5 -14 -23 -30 -41 -16 -18 -30 -38 -30 -45 0 -8 -8 -20 -17 -27 -10
-7 -24 -24 -32 -38 -20 -37 -73 -109 -103 -141 -14 -16 -37 -46 -49 -66 -13
-21 -39 -54 -59 -73 -20 -19 -42 -50 -49 -68 -7 -17 -19 -32 -25 -32 -6 0 -22
-17 -36 -37 -24 -36 -109 -126 -160 -169 -14 -12 -47 -47 -75 -78 -27 -31 -58
-58 -67 -61 -9 -3 -20 -14 -23 -24 -3 -10 -21 -27 -40 -37 -19 -10 -35 -21
-35 -25 0 -11 -68 -79 -79 -79 -6 0 -36 -24 -66 -52 -99 -95 -125 -118 -135
-118 -5 0 -25 -14 -43 -30 -19 -17 -49 -33 -66 -36 -17 -4 -41 -19 -53 -35
-13 -16 -28 -29 -34 -29 -5 0 -20 -9 -32 -20 -22 -21 -74 -53 -142 -87 -19 -9
-51 -29 -70 -43 -19 -15 -57 -34 -83 -44 -27 -10 -59 -29 -72 -42 -13 -13 -31
-24 -40 -24 -9 0 -33 -11 -53 -25 -20 -14 -43 -25 -50 -25 -7 0 -27 -7 -45
-17 -18 -9 -52 -22 -77 -29 -25 -7 -69 -21 -98 -32 -29 -11 -55 -20 -58 -20
-7 0 -65 -22 -85 -32 -9 -5 -36 -12 -60 -15 -24 -4 -54 -13 -66 -20 -19 -13
-39 -18 -118 -28 -11 -2 -30 -8 -42 -15 -12 -7 -35 -14 -50 -16 -15 -1 -44 -8
-63 -14 -37 -11 -124 -23 -200 -27 -90 -6 -173 -15 -178 -20 -3 -2 -11 0 -18
6 -9 7 -24 8 -41 3 -39 -11 -138 -16 -263 -12 -30 1 -64 1 -75 0 -58 -5 -242
14 -280 28 -17 7 -99 18 -177 25 -10 1 -21 4 -24 8 -4 4 -22 7 -39 7 -18 0
-45 6 -61 14 -16 8 -49 16 -74 17 -25 2 -63 13 -85 24 -22 12 -53 20 -70 19
-16 -1 -39 3 -50 9 -11 6 -22 12 -25 12 -66 12 -87 21 -237 91 -50 24 -98 44
-105 44 -7 0 -33 11 -57 25 -23 14 -48 25 -55 25 -6 0 -24 11 -40 25 -16 14
-33 25 -38 25 -4 0 -11 0 -15 1 -15 2 -79 38 -112 63 -18 14 -46 28 -62 31
-15 4 -33 13 -40 21 -6 8 -30 23 -53 34 -45 22 -119 73 -153 107 -12 12 -36
29 -52 38 -17 8 -31 19 -31 24 0 5 -13 14 -29 21 -16 6 -41 25 -57 41 -15 16
-32 29 -37 29 -5 0 -25 18 -44 40 -20 22 -42 40 -49 40 -8 0 -14 5 -14 10 0 6
-6 10 -13 10 -6 0 -29 20 -50 45 -21 25 -54 52 -73 61 -18 9 -31 20 -28 25 3
5 1 9 -5 9 -11 0 -161 147 -161 158 0 4 -30 40 -67 79 -110 116 -137 147 -153
174 -8 15 -30 39 -47 54 -18 14 -40 42 -49 61 -9 18 -34 49 -55 69 -21 19 -39
41 -39 48 0 8 -12 24 -26 38 -27 25 -114 151 -114 165 0 9 -76 121 -96 142 -7
6 -16 22 -19 35 -4 12 -15 31 -25 42 -9 11 -23 36 -30 55 -7 19 -23 46 -35 60
-24 27 -59 90 -50 90 7 0 -23 47 -49 78 -11 12 -21 32 -23 45 -2 12 -8 23 -13
25 -10 4 -73 131 -95 193 -13 37 -72 166 -106 231 -10 20 -19 45 -19 55 0 10
-14 45 -30 78 -17 33 -30 68 -30 78 0 10 -10 37 -22 60 -12 23 -22 51 -23 62
-1 11 -8 31 -15 45 -8 14 -15 30 -16 35 -1 6 -11 37 -22 70 -11 33 -22 74 -25
90 -2 17 -19 72 -36 123 -17 51 -31 101 -31 111 0 9 -4 21 -10 27 -5 5 -12 28
-14 49 -2 22 -12 63 -23 90 -10 28 -20 68 -22 90 -2 22 -7 47 -12 56 -4 9 -13
38 -19 65 -6 27 -13 56 -17 64 -8 20 -23 109 -28 170 -3 37 -18 123 -31 172
-6 25 -12 74 -18 158 -3 30 -9 69 -14 85 -5 17 -8 50 -7 75 1 25 -5 63 -12 85
-7 21 -11 45 -8 53 3 8 1 31 -5 51 -5 20 -10 106 -11 191 -1 85 -6 165 -10
178 -5 12 -5 22 -1 22 4 0 6 19 4 42 -2 24 -3 59 -2 78 1 19 1 46 0 60 -3 39
-1 143 3 165 2 11 0 30 -6 42 -6 14 -6 32 1 52 6 17 7 33 3 36 -8 4 -6 88 4
170 1 17 6 68 9 115 3 47 9 110 12 140 12 103 13 115 17 186 3 40 8 78 13 85
4 7 9 41 11 74 4 101 11 174 19 197 4 13 8 37 9 53 1 17 7 40 14 52 6 13 14
40 16 60 7 65 24 153 31 164 3 6 8 29 10 51 2 22 8 47 13 56 5 10 12 41 15 70
3 29 13 67 22 84 9 17 17 52 19 78 2 27 8 56 13 66 5 11 12 39 16 63 3 24 10
49 15 55 4 6 11 22 14 36 3 14 19 63 37 110 17 47 33 93 35 104 2 10 8 23 13
30 6 6 15 34 21 63 6 28 20 67 31 85 11 18 20 42 20 53 0 11 14 49 30 83 17
35 30 71 30 81 0 9 9 33 20 54 11 20 20 42 20 48 0 7 13 39 29 73 15 34 30 66
32 71 2 6 15 28 29 50 14 22 25 42 26 45 0 3 13 31 27 63 15 32 27 62 27 67 0
6 4 10 9 10 5 0 14 13 19 30 6 16 22 45 36 62 13 18 25 36 25 41 2 21 33 80
55 103 13 15 30 46 36 70 7 24 16 44 20 44 4 0 18 21 30 47 20 42 55 94 109
163 11 14 41 56 66 94 54 81 75 109 133 177 23 27 42 54 42 60 0 5 23 33 50
61 28 28 50 57 50 64 0 7 15 29 33 48 17 19 55 60 82 92 28 31 56 62 64 68 32
26 161 161 161 168 0 4 6 8 14 8 8 0 24 14 36 30 12 17 27 30 33 30 7 0 32 22
56 50 24 27 62 61 85 74 23 13 48 36 55 50 8 13 26 30 42 36 15 7 30 18 33 25
3 8 24 27 48 42 24 15 46 33 50 39 4 6 22 17 40 25 36 14 144 85 154 100 3 5
25 19 50 30 24 12 44 25 44 29 0 5 16 14 37 21 20 6 56 27 80 45 25 19 52 34
62 34 9 0 33 12 52 26 39 29 217 117 236 117 7 0 13 4 13 8 0 4 15 10 33 13
33 6 131 44 157 61 16 10 32 15 65 19 11 1 30 7 42 14 12 7 33 12 48 12 14 0
45 10 68 21 23 12 63 23 89 24 26 1 53 7 60 12 19 15 51 26 66 24 7 -1 30 3
50 10 36 12 61 15 167 24 78 6 157 15 190 20 17 3 81 7 143 9 62 2 115 5 117
8 3 3 23 0 45 -6 28 -7 52 -7 80 0z"/>
<path d="M5907 11554 c-4 -4 -47 -7 -96 -6 -61 0 -110 -5 -162 -20 -41 -11
-100 -21 -132 -23 -32 -1 -60 -5 -64 -9 -3 -3 -26 -6 -50 -6 -27 0 -62 -10
-94 -26 -27 -15 -63 -28 -78 -29 -16 -1 -35 -6 -42 -11 -8 -5 -30 -9 -49 -11
-19 -1 -55 -9 -79 -18 -24 -8 -57 -15 -74 -15 -16 0 -44 -9 -61 -20 -18 -10
-57 -26 -88 -34 -66 -17 -106 -36 -172 -84 -44 -31 -102 -56 -116 -49 -3 1
-19 -8 -37 -21 -17 -12 -38 -22 -46 -22 -9 0 -42 -22 -73 -50 -31 -27 -63 -50
-70 -50 -7 0 -19 -10 -25 -22 -27 -53 -103 -98 -165 -98 -12 0 -45 -21 -73
-46 -28 -25 -66 -50 -84 -55 -33 -9 -96 -64 -164 -142 -18 -20 -38 -37 -45
-37 -7 0 -29 -15 -49 -33 -20 -17 -53 -45 -73 -61 -20 -16 -36 -35 -36 -42 0
-14 -54 -74 -67 -74 -5 0 -14 -13 -21 -30 -8 -16 -20 -30 -27 -30 -7 0 -41
-27 -75 -60 -34 -33 -66 -60 -70 -60 -5 0 -11 -9 -15 -20 -3 -10 -35 -48 -71
-84 -35 -35 -64 -69 -64 -74 0 -6 -6 -17 -14 -24 -7 -8 -24 -34 -36 -59 -12
-24 -37 -60 -55 -79 -73 -77 -116 -128 -113 -136 4 -15 -35 -88 -55 -103 -10
-7 -16 -19 -13 -26 2 -7 -11 -28 -31 -46 -19 -19 -44 -51 -54 -72 -11 -21 -26
-40 -34 -44 -8 -3 -24 -26 -35 -51 -12 -25 -39 -70 -61 -99 -22 -30 -42 -62
-44 -71 -10 -42 -55 -156 -68 -171 -31 -36 -89 -157 -98 -204 -5 -28 -16 -58
-24 -67 -8 -9 -15 -26 -15 -38 0 -12 -8 -30 -18 -40 -20 -20 -33 -45 -39 -76
-2 -11 -17 -40 -33 -64 -17 -25 -30 -54 -30 -64 0 -24 -30 -98 -40 -98 -4 0
-10 -10 -13 -22 -3 -13 -11 -41 -17 -63 -6 -22 -13 -62 -15 -89 -3 -27 -16
-68 -30 -92 -14 -23 -25 -50 -25 -59 0 -9 -7 -30 -16 -48 -9 -17 -18 -56 -19
-87 -1 -31 -7 -66 -14 -77 -6 -12 -11 -33 -11 -47 0 -14 -9 -40 -20 -58 -11
-18 -20 -47 -20 -63 0 -17 -7 -41 -16 -53 -15 -22 -18 -32 -28 -107 -2 -22
-12 -58 -22 -80 -11 -26 -17 -75 -19 -142 -2 -55 -8 -111 -15 -123 -23 -42
-39 -185 -39 -339 0 -18 -5 -38 -10 -45 -5 -6 -12 -40 -15 -74 -2 -35 -9 -69
-14 -75 -5 -7 -8 -34 -7 -62 1 -27 -2 -66 -7 -85 -11 -43 -11 -147 1 -217 4
-28 4 -57 0 -65 -16 -29 -20 -178 -6 -226 10 -31 11 -55 6 -71 -6 -15 -5 -28
2 -37 7 -9 8 -24 3 -41 -4 -16 -9 -62 -11 -103 -7 -188 5 -369 29 -413 5 -10
10 -73 12 -140 2 -85 8 -133 19 -158 19 -42 30 -120 41 -294 3 -38 12 -97 21
-129 9 -33 15 -70 12 -83 -2 -13 -1 -23 3 -23 4 0 7 -6 7 -12 -2 -21 34 -131
40 -124 10 9 11 228 2 294 -10 71 -27 257 -33 367 -2 33 -6 76 -9 95 -14 87
-28 235 -24 263 2 18 -2 49 -9 69 -9 25 -10 54 -5 85 4 27 3 62 -2 78 -4 17
-11 66 -13 110 -7 102 -7 103 -5 145 2 65 3 85 6 210 4 147 5 164 5 209 0 18
4 41 9 50 5 9 7 25 5 36 -4 25 -4 77 0 187 2 52 -3 116 -12 158 -11 49 -12 74
-5 78 12 8 20 32 27 87 3 22 9 58 12 80 4 22 8 60 10 85 1 25 3 45 4 45 1 0 3
27 5 60 4 63 10 118 20 200 9 69 45 217 57 233 6 6 7 12 3 12 -4 0 -3 6 3 13
6 6 11 17 12 22 1 6 19 45 41 88 21 43 39 84 39 93 0 8 10 36 22 62 12 26 22
58 24 72 1 14 6 39 12 55 34 101 43 133 48 154 3 13 13 40 23 60 10 20 22 54
26 76 6 35 39 110 55 125 3 3 7 23 9 45 1 22 11 54 21 70 10 17 21 42 24 55 2
14 12 48 20 75 9 28 16 68 16 89 0 22 6 47 14 55 7 9 26 41 42 71 16 30 37 64
47 74 21 25 57 97 57 118 0 40 41 131 71 156 64 54 89 88 141 191 29 58 56
108 60 109 5 2 8 9 8 15 1 14 67 103 133 179 25 29 55 64 67 78 12 14 42 53
67 88 25 34 49 62 54 62 5 0 12 8 16 18 3 9 30 40 58 68 29 28 62 69 74 92 11
22 30 43 41 47 11 3 20 10 20 16 0 12 151 169 162 169 5 0 48 37 95 83 134
128 144 137 154 137 5 0 9 5 9 10 0 6 6 10 13 10 7 0 35 22 62 48 28 26 64 53
80 60 17 7 50 33 74 57 25 25 50 45 56 45 6 0 29 16 51 35 21 19 43 35 47 35
4 0 32 15 62 34 29 19 55 33 57 31 2 -2 21 7 43 20 79 46 281 145 296 145 9 0
27 8 40 18 32 24 74 41 116 48 46 7 96 38 113 69 12 22 24 28 90 40 14 3 36 7
50 10 14 2 39 7 55 10 49 8 68 12 115 26 56 16 52 14 70 22 83 33 162 48 245
46 163 -4 298 -3 408 2 60 3 111 1 113 -3 3 -5 20 -6 37 -3 18 4 45 1 61 -5
16 -6 68 -13 117 -16 124 -8 123 -8 129 -16 4 -4 69 -10 145 -13 146 -5 177
-9 235 -27 31 -9 189 -89 215 -108 15 -12 120 -40 162 -44 158 -17 230 -43
307 -111 21 -19 36 -35 34 -35 -3 0 20 -27 50 -60 40 -44 67 -63 103 -75 27
-9 55 -24 61 -33 7 -10 30 -26 51 -37 21 -11 53 -32 70 -47 17 -16 34 -28 38
-28 4 0 30 -21 57 -47 62 -59 117 -103 128 -103 5 -1 27 -19 49 -40 22 -22 47
-42 56 -45 9 -3 22 -17 30 -31 7 -14 27 -35 44 -46 16 -11 57 -48 91 -82 33
-33 74 -73 90 -87 16 -15 34 -33 40 -40 6 -8 42 -41 79 -74 101 -89 165 -156
165 -175 0 -5 4 -10 9 -10 5 0 24 -24 42 -52 19 -29 37 -54 41 -56 5 -2 8 -8
8 -13 0 -5 16 -33 35 -63 19 -30 35 -61 35 -69 0 -8 9 -22 21 -33 12 -10 34
-44 50 -74 28 -54 72 -104 93 -106 55 -4 107 -73 130 -173 18 -75 16 -66 16
-99 0 -16 9 -39 20 -52 11 -13 20 -29 20 -36 0 -7 15 -22 34 -34 35 -21 50
-52 60 -120 8 -57 21 -92 55 -141 17 -26 31 -55 31 -65 1 -25 33 -95 53 -116
9 -9 18 -27 21 -40 2 -14 14 -44 26 -68 12 -24 24 -54 26 -68 3 -13 12 -39 21
-56 10 -17 19 -44 21 -61 2 -16 10 -43 18 -60 7 -16 15 -39 17 -50 2 -11 14
-42 26 -69 12 -26 21 -53 20 -60 -1 -6 5 -28 14 -48 10 -21 17 -50 17 -65 0
-16 7 -39 16 -51 8 -12 12 -22 7 -22 -4 0 -3 -4 4 -8 7 -4 15 -28 18 -52 4
-25 8 -54 9 -65 2 -11 13 -39 25 -63 12 -24 20 -49 18 -55 -2 -7 4 -35 14 -62
10 -28 19 -68 21 -90 2 -22 8 -47 13 -55 5 -8 8 -28 6 -44 -3 -27 3 -58 31
-161 6 -22 12 -56 13 -75 1 -19 5 -46 10 -59 4 -13 9 -47 10 -75 2 -28 8 -67
14 -86 6 -19 11 -58 11 -87 0 -29 7 -71 16 -93 9 -22 13 -47 10 -56 -3 -8 -2
-34 4 -57 17 -77 32 -432 30 -697 -1 -36 -1 -81 0 -100 1 -169 0 -245 -4 -305
-4 -38 -5 -83 -4 -100 5 -83 2 -335 -5 -370 -9 -48 -14 -77 -24 -125 -9 -46
-10 -50 -12 -52 -2 -2 -5 -14 -8 -28 -6 -31 -8 -41 -16 -62 -15 -40 -19 -55
-23 -98 -3 -25 -9 -58 -14 -75 -5 -16 -11 -48 -15 -70 -4 -22 -11 -45 -16 -51
-5 -7 -12 -30 -14 -53 -2 -23 -7 -47 -11 -53 -4 -6 -8 -29 -10 -52 -1 -22 -8
-54 -14 -71 -7 -16 -14 -43 -16 -59 -2 -17 -10 -44 -18 -60 -8 -17 -17 -65
-20 -106 -3 -41 -7 -84 -10 -95 -8 -38 -27 -110 -33 -125 -3 -8 -7 -21 -9 -28
-1 -7 -18 -47 -38 -88 -19 -41 -36 -78 -36 -82 -1 -4 -15 -30 -31 -58 -16 -28
-29 -60 -29 -71 0 -10 -5 -24 -11 -30 -6 -6 -12 -19 -14 -29 -2 -11 -4 -19 -5
-19 -1 0 -4 -11 -6 -24 -2 -14 -11 -32 -19 -40 -7 -9 -14 -19 -14 -23 -1 -5
-1 -9 -2 -10 0 -2 -2 -14 -5 -27 -2 -13 -14 -36 -25 -53 -12 -16 -27 -52 -34
-79 -8 -28 -25 -65 -38 -83 -25 -32 -50 -103 -42 -116 3 -4 -4 -15 -15 -25
-11 -10 -24 -34 -31 -54 -6 -20 -27 -59 -45 -88 -19 -28 -34 -56 -34 -62 0
-10 -9 -22 -45 -65 -5 -7 -18 -27 -29 -46 -58 -107 -76 -139 -99 -175 -15 -22
-35 -49 -45 -60 -10 -11 -31 -45 -47 -75 -15 -30 -39 -66 -53 -79 -14 -13 -36
-46 -49 -73 -12 -26 -29 -51 -38 -54 -8 -3 -15 -12 -15 -20 0 -8 -4 -14 -10
-14 -5 0 -10 -6 -10 -14 0 -7 -18 -33 -41 -57 -22 -24 -47 -56 -55 -71 -8 -16
-18 -28 -23 -28 -12 0 -61 -47 -61 -59 0 -5 -8 -16 -18 -23 -10 -7 -29 -29
-42 -48 -27 -39 -59 -70 -72 -70 -4 0 -8 -5 -8 -11 0 -38 -136 -188 -274 -304
-27 -22 -56 -47 -65 -55 -44 -40 -222 -167 -294 -210 -45 -27 -93 -57 -107
-67 -14 -10 -39 -23 -57 -29 -42 -15 -114 -74 -268 -221 -21 -20 -88 -52 -125
-59 -19 -3 -69 -8 -110 -9 -71 -3 -104 -12 -212 -59 -21 -9 -48 -16 -61 -16
-13 0 -28 -5 -35 -12 -7 -7 -29 -13 -48 -14 -20 -2 -59 -12 -87 -23 -29 -11
-72 -22 -97 -25 -25 -2 -69 -11 -97 -21 -29 -9 -59 -15 -68 -12 -8 4 -17 2
-20 -3 -6 -10 -81 -24 -110 -21 -11 1 -41 -3 -68 -7 -26 -5 -50 -6 -52 -2 -3
4 -22 5 -42 2 -32 -4 -282 -7 -363 -4 -14 1 -38 0 -55 -2 -16 -1 -48 2 -70 8
-22 5 -71 10 -110 12 -120 4 -282 33 -334 60 -14 8 -36 14 -48 14 -12 0 -34 5
-50 12 -32 13 -36 14 -79 21 -17 3 -40 10 -51 15 -11 6 -30 12 -44 14 -13 2
-29 7 -36 11 -6 4 -45 9 -85 11 -40 2 -86 7 -103 11 -44 9 -192 84 -242 122
-24 18 -48 33 -53 33 -6 0 -10 5 -10 10 0 6 -5 10 -10 10 -6 0 -20 8 -31 18
-10 11 -49 36 -86 58 -37 21 -95 63 -129 92 -34 28 -65 52 -71 52 -5 0 -29 18
-53 40 -24 22 -49 40 -54 40 -5 0 -17 6 -25 14 -9 8 -35 17 -58 19 -76 9 -146
58 -224 159 -19 24 -39 49 -46 56 -7 7 -13 17 -13 21 0 4 -27 35 -60 69 -33
35 -60 67 -60 72 0 5 -31 40 -69 79 -38 38 -83 88 -100 111 -17 23 -46 56 -66
73 -19 16 -43 45 -51 63 -17 35 -61 84 -75 84 -5 0 -19 17 -32 37 -14 21 -38
53 -56 72 -17 18 -31 38 -31 43 0 5 -16 29 -35 52 -19 24 -35 48 -35 55 0 15
-31 64 -47 74 -7 4 -13 13 -13 18 0 6 -16 31 -35 56 -20 26 -38 57 -41 70 -4
13 -10 23 -16 23 -5 0 -21 26 -35 58 -14 31 -28 59 -32 62 -17 12 -49 68 -61
105 -7 22 -25 54 -40 70 -15 17 -31 41 -35 55 -4 14 -20 46 -36 71 -16 25 -29
52 -29 60 0 8 -11 32 -25 54 -13 22 -25 49 -25 60 0 11 -9 35 -20 53 -11 18
-20 39 -20 47 0 8 -6 15 -12 15 -13 0 -64 70 -91 125 -18 36 -51 148 -67 225
-6 30 -33 109 -59 175 -49 122 -64 177 -75 275 -5 43 -17 84 -33 114 -17 32
-80 96 -93 96 -9 0 -6 -62 4 -78 4 -7 9 -33 11 -58 2 -24 9 -52 17 -61 22 -26
46 -86 41 -100 -3 -7 2 -20 11 -29 13 -12 15 -26 10 -59 -4 -28 -1 -51 7 -66
8 -13 14 -35 15 -49 1 -14 3 -27 4 -30 1 -3 2 -8 1 -12 0 -4 10 -31 23 -60 14
-29 26 -69 29 -89 2 -20 21 -68 42 -105 20 -38 43 -80 51 -94 7 -14 16 -40 19
-59 3 -18 12 -46 20 -62 9 -16 15 -32 14 -36 -3 -14 23 -73 32 -73 10 0 59
-82 59 -100 0 -7 7 -18 15 -24 8 -6 16 -22 19 -36 9 -52 18 -80 27 -80 5 0 16
-26 25 -57 9 -31 22 -63 28 -70 28 -31 34 -41 48 -85 16 -46 79 -139 113 -168
10 -8 31 -42 47 -75 51 -107 74 -142 121 -187 26 -25 47 -52 47 -61 0 -8 8
-18 18 -21 10 -4 24 -23 31 -44 8 -20 29 -54 47 -75 19 -20 34 -44 34 -52 0
-8 16 -32 37 -52 20 -21 49 -58 64 -83 15 -25 54 -67 85 -95 87 -76 141 -135
199 -216 11 -15 30 -31 43 -34 12 -3 40 -23 62 -45 22 -22 44 -40 50 -40 5 0
17 -12 27 -27 18 -29 63 -73 75 -73 3 0 16 -16 28 -35 12 -20 35 -42 51 -51
16 -8 58 -40 93 -72 34 -31 85 -68 112 -81 82 -39 91 -45 135 -86 24 -22 46
-39 49 -38 3 1 15 -6 27 -17 30 -26 58 -40 81 -40 11 0 36 -11 56 -25 20 -14
43 -25 50 -25 8 0 33 -15 55 -34 23 -19 54 -37 71 -41 16 -4 30 -10 30 -13 0
-14 66 -50 101 -56 21 -4 42 -13 49 -21 7 -8 18 -15 24 -15 7 0 17 -5 24 -12
6 -6 17 -13 24 -14 7 -1 42 -9 78 -18 36 -8 77 -17 91 -20 14 -2 45 -14 67
-25 23 -12 48 -21 57 -21 9 0 33 -9 54 -20 21 -10 41 -17 44 -14 10 10 82 6
112 -7 17 -6 41 -11 55 -10 14 1 39 -5 55 -13 17 -9 45 -16 63 -16 18 0 43 -5
55 -12 12 -7 38 -13 58 -13 20 -1 41 -5 48 -9 6 -4 11 -2 11 4 0 6 4 9 8 6 21
-12 82 -20 147 -19 131 4 240 4 305 1 44 -3 80 2 111 14 25 9 56 14 67 11 12
-3 35 0 52 6 18 6 40 7 53 2 14 -6 36 -4 58 3 19 7 58 11 86 9 43 -3 61 2 124
34 69 36 76 37 102 25 26 -13 34 -11 104 22 41 20 85 36 97 36 27 0 154 37
176 51 8 5 29 18 45 30 17 11 42 22 57 26 15 3 33 11 39 19 6 7 27 16 48 20
20 4 56 17 81 30 25 13 54 24 65 24 22 0 83 46 129 98 29 33 30 33 41 12 11
-21 11 -20 56 11 24 17 62 48 84 69 22 20 56 43 75 50 19 7 44 21 55 31 11 10
32 22 47 28 15 5 42 30 60 55 18 25 47 52 64 61 18 8 34 22 38 30 3 8 18 21
33 27 15 7 47 29 70 50 24 21 49 38 57 38 7 0 30 20 50 44 19 24 56 57 81 72
25 16 45 32 45 35 0 3 10 17 21 30 12 13 37 48 56 77 18 28 38 52 43 52 18 0
141 133 155 167 18 43 95 138 196 241 20 20 50 61 68 91 18 29 46 68 62 85 16
17 35 46 41 64 7 17 16 32 20 32 4 0 8 7 8 15 0 21 27 73 52 99 11 12 29 37
40 56 12 19 29 44 38 55 10 11 25 45 34 76 9 31 23 62 31 69 8 7 15 21 15 32
0 10 12 31 26 45 14 14 34 44 44 67 10 23 27 52 39 65 12 13 25 40 31 60 5 20
21 53 36 74 27 40 58 121 75 197 6 24 23 66 39 91 16 26 26 50 22 54 -3 3 -2
9 3 13 21 15 45 76 45 115 0 24 8 54 19 71 11 16 17 35 14 42 -2 7 7 32 21 57
14 24 26 52 26 62 0 10 11 37 24 59 13 23 26 61 30 84 4 24 16 62 27 84 21 40
25 63 36 178 3 36 12 77 19 91 7 15 18 46 24 70 16 67 18 74 20 74 1 0 3 32 4
71 2 38 7 77 11 85 5 8 8 23 7 34 -2 11 4 37 13 57 8 21 15 49 15 63 0 14 7
42 16 63 9 20 18 60 19 87 1 28 8 73 17 100 10 33 14 80 12 140 -2 50 1 110 6
135 15 71 22 123 21 145 -8 153 -7 213 4 239 6 17 9 42 5 56 -3 14 -3 39 2 55
13 46 17 283 6 345 -11 54 -11 78 -6 214 2 39 -2 85 -10 105 -12 34 -24 132
-21 176 2 33 0 89 -4 110 -2 11 -1 33 3 50 4 17 3 42 -3 55 -5 14 -11 57 -12
95 -1 39 -5 84 -9 100 -3 17 -8 39 -10 50 -2 11 -13 40 -23 65 -12 29 -17 56
-13 75 4 17 3 40 -1 52 -5 12 -9 41 -11 65 -1 24 -12 63 -25 88 -13 25 -23 59
-23 77 0 17 -4 35 -10 38 -5 3 -10 26 -10 50 0 24 -5 56 -11 72 -6 15 -12 52
-14 81 -2 29 -8 58 -13 65 -9 12 -23 71 -27 113 -2 27 -42 127 -68 171 -10 18
-20 48 -23 68 -9 72 -43 175 -70 210 -15 20 -28 46 -28 58 -1 12 -9 33 -19 47
-9 13 -17 36 -17 50 0 14 -9 43 -19 64 -11 20 -22 53 -24 71 -3 19 -14 49 -26
68 -11 19 -30 64 -41 100 -11 36 -27 73 -35 81 -8 8 -15 18 -15 23 0 5 -13 25
-30 45 -24 29 -66 109 -70 133 -5 30 -59 126 -86 153 -19 19 -34 39 -34 45 0
7 -14 32 -30 56 -17 24 -28 46 -26 49 3 2 -10 29 -29 58 -19 30 -35 60 -35 68
0 7 -15 33 -34 57 -18 24 -46 66 -61 94 -15 27 -57 80 -93 117 -36 37 -72 82
-81 100 -8 18 -26 44 -38 58 -13 14 -23 30 -23 37 0 6 -18 27 -41 45 -23 18
-49 41 -58 51 -9 10 -28 30 -42 45 -15 15 -34 42 -43 59 -9 18 -27 40 -40 48
-12 8 -29 27 -36 43 -8 15 -37 50 -65 77 -29 28 -58 59 -66 70 -18 26 -105 96
-143 115 -16 8 -43 30 -60 49 -17 18 -37 38 -44 45 -7 6 -29 27 -48 47 -19 20
-52 41 -73 48 -22 6 -50 23 -63 37 -12 13 -38 31 -55 39 -18 8 -33 19 -33 25
0 5 -25 26 -56 46 -30 19 -58 42 -61 50 -3 8 -25 23 -48 33 -24 11 -68 38 -98
60 -29 23 -58 41 -63 41 -5 0 -21 6 -35 14 -14 7 -41 16 -60 20 -19 3 -58 22
-88 41 -29 19 -58 35 -64 35 -6 0 -28 12 -49 26 -24 17 -53 27 -82 28 -24 2
-56 10 -70 19 -13 9 -38 18 -55 19 -17 1 -31 6 -31 10 0 10 -37 29 -68 34 -38
6 -82 25 -82 35 0 6 -90 25 -98 20 -1 -1 -16 6 -32 14 -17 9 -30 13 -30 10 0
-3 -9 -1 -21 5 -29 16 -63 22 -149 24 -71 3 -122 11 -145 25 -16 9 -60 11
-209 12 -77 0 -145 3 -150 7 -6 4 -38 7 -71 8 -33 0 -74 4 -90 8 -17 4 -34 3
-38 0z"/>
<path d="M5952 11289 c-28 -11 -37 -32 -22 -58 40 -76 184 -52 163 27 -7 30
-94 49 -141 31z"/>
<path d="M6362 11244 c-21 -14 -21 -17 -7 -44 18 -34 53 -46 98 -33 35 10 60
54 40 74 -18 18 -107 20 -131 3z"/>
<path d="M5553 11227 c-35 -13 -83 -52 -83 -66 0 -17 18 -22 77 -23 90 -2 143
10 143 32 0 21 -44 56 -81 64 -13 3 -38 0 -56 -7z"/>
<path d="M5065 11139 c-84 -59 -105 -69 -141 -69 -23 0 -50 -3 -59 -6 -18 -7
-71 -104 -56 -104 4 0 37 19 73 43 126 83 145 91 243 95 l91 4 2 29 c3 37 -11
65 -36 71 -11 3 -54 -20 -117 -63z"/>
<path d="M6828 11194 c-4 -3 -12 -6 -20 -8 -29 -4 -78 -48 -78 -70 0 -23 28
-55 68 -75 27 -14 98 -16 132 -4 14 5 37 8 52 7 33 -3 98 -33 98 -45 0 -20 61
-68 93 -74 34 -7 88 12 102 36 13 21 -17 68 -56 87 -35 18 -45 19 -87 8 -26
-7 -53 -11 -59 -10 -7 1 -23 2 -35 3 -27 1 -63 31 -103 85 -32 42 -92 76 -107
60z"/>
<path d="M4535 10864 c-17 -7 -39 -22 -50 -34 l-20 -22 24 -19 c52 -42 131 -6
116 54 -8 31 -30 38 -70 21z"/>
<path d="M7490 10831 c-75 -37 -79 -42 -61 -63 9 -11 36 -33 59 -50 35 -24 48
-28 65 -21 12 5 43 11 68 12 56 3 98 -28 123 -90 17 -43 27 -57 66 -96 20 -20
30 -23 59 -18 40 8 80 42 86 76 6 32 -21 82 -52 96 -26 11 -62 11 -125 -1 -15
-2 -30 -1 -33 4 -3 5 -11 7 -18 4 -26 -10 -77 66 -81 121 -1 14 -66 44 -96 44
-14 0 -41 -8 -60 -18z"/>
<path d="M4199 10664 c-20 -8 -41 -26 -47 -39 -10 -21 -8 -27 11 -40 12 -8 40
-15 63 -15 34 0 47 5 63 26 12 15 21 32 21 38 -1 39 -56 54 -111 30z"/>
<path d="M3856 10414 c-9 -8 -17 -23 -17 -32 -8 -89 24 -120 96 -95 51 17 60
33 44 80 -17 53 -89 81 -123 47z"/>
<path d="M8125 10415 c-16 -7 -40 -22 -52 -34 -18 -17 -21 -25 -12 -44 23 -50
116 -85 158 -58 29 18 12 94 -28 131 -22 20 -31 21 -66 5z"/>
<path d="M3628 10192 c-15 -2 -36 -15 -47 -28 -32 -41 -9 -74 64 -95 70 -20
87 -20 112 -4 20 13 23 22 18 43 -5 22 -55 83 -55 68 0 -3 -15 1 -32 7 -18 7
-45 11 -60 9z"/>
<path d="M8462 10158 c-12 -6 -31 -26 -43 -44 -33 -54 -10 -111 56 -139 24
-11 34 -11 56 1 43 22 52 78 24 139 -13 25 -54 59 -68 54 -1 0 -12 -5 -25 -11z"/>
<path d="M3422 9899 c-20 -20 -29 -40 -30 -68 -2 -21 -5 -48 -7 -60 -4 -24 -1
-25 25 -11 11 6 43 15 71 20 63 12 79 24 79 59 0 40 -25 65 -79 81 -26 7 -34
5 -59 -21z"/>
<path d="M8765 9774 c-5 -1 -22 -5 -37 -8 -42 -9 -54 -71 -20 -105 11 -11 33
-16 74 -15 32 0 60 3 64 6 3 3 6 20 6 37 1 45 -49 95 -87 85z"/>
<path d="M3315 9668 c-11 -7 -24 -13 -30 -15 -5 -1 -20 -4 -33 -7 -34 -8 -44
-16 -33 -29 5 -7 10 -16 11 -22 9 -41 58 -63 104 -46 25 10 27 14 20 44 -5 17
-8 44 -9 60 0 30 -2 31 -30 15z"/>
<path d="M8923 9452 c-16 -2 -23 -10 -23 -25 0 -24 40 -110 64 -141 14 -18 17
-18 40 -3 13 9 30 33 36 52 11 34 10 39 -13 63 -36 37 -78 59 -104 54z"/>
<path d="M3040 9403 c-26 -10 -50 -35 -50 -54 0 -42 107 -72 149 -43 29 21 26
41 -10 75 -30 28 -56 34 -89 22z"/>
<path d="M2868 9102 c-28 -6 -33 -63 -9 -109 19 -38 37 -53 65 -53 11 0 47 52
53 75 1 6 4 20 7 32 9 43 -47 69 -116 55z"/>
<path d="M9131 9087 c-25 -27 -33 -70 -18 -91 23 -29 67 -45 97 -34 30 10 38
27 32 68 -9 65 -72 97 -111 57z"/>
<path d="M2701 8750 c-21 -17 -22 -24 -15 -72 4 -29 8 -61 7 -71 0 -16 1 -17
21 -2 11 8 41 25 66 36 51 23 60 33 60 72 0 23 -7 31 -35 43 -47 19 -78 18
-104 -6z"/>
<path d="M9269 8737 c-33 -27 -40 -48 -25 -68 26 -36 93 -51 114 -26 14 17 14
22 -3 64 -25 59 -45 66 -86 30z"/>
<path d="M2655 8529 c-5 -5 -25 -22 -43 -38 -29 -26 -32 -33 -27 -72 3 -24 8
-45 10 -47 10 -10 76 -2 89 11 13 13 13 21 0 72 -8 31 -13 64 -10 71 6 16 -4
18 -19 3z"/>
<path d="M9367 8404 c-3 -4 4 -25 16 -48 68 -123 87 -214 61 -289 -18 -52 -18
-52 11 -65 49 -22 115 -8 115 24 0 8 -23 58 -51 111 -50 93 -52 97 -41 142 12
53 9 58 -54 102 -46 31 -48 32 -57 23z"/>
<path d="M3460 8198 c-43 -16 -18 -43 53 -58 32 -6 69 -22 84 -34 l26 -22 0
-470 c0 -258 -3 -487 -7 -509 -11 -65 -44 -120 -86 -144 -21 -11 -44 -21 -53
-21 -8 0 -21 -7 -28 -16 -22 -27 10 -42 83 -37 56 3 246 3 518 1 111 -1 169 3
190 13 8 4 37 18 64 30 65 29 137 102 168 169 44 98 48 231 9 307 -41 82 -145
154 -264 184 l-47 11 60 29 c99 47 159 122 185 234 26 112 -25 213 -144 283
-25 15 -48 27 -51 28 -3 0 -18 3 -35 7 -16 4 -41 10 -55 13 -14 3 -74 5 -135
4 -202 -3 -399 -3 -458 1 -32 2 -67 1 -77 -3z m634 -78 c64 -24 107 -71 123
-133 3 -12 6 -53 7 -92 4 -125 -35 -204 -121 -245 -41 -20 -65 -23 -173 -24
l-125 -1 1 220 c1 121 3 228 6 238 5 20 33 42 63 50 32 8 188 -1 219 -13z
m-29 -563 c86 -10 125 -27 178 -79 73 -71 94 -232 45 -338 -67 -144 -241 -226
-384 -180 -37 12 -92 61 -95 84 -1 6 -3 123 -3 259 -2 188 1 250 10 255 13 7
181 6 249 -1z"/>
<path d="M7064 8169 c-12 -4 -25 -12 -28 -18 -9 -13 30 -37 74 -46 53 -11 105
-41 125 -72 15 -23 18 -46 17 -123 -1 -52 -4 -120 -6 -150 -3 -30 -8 -89 -11
-130 -3 -41 -8 -88 -10 -105 -2 -16 -7 -64 -10 -105 -4 -41 -9 -84 -11 -95 -2
-11 -7 -44 -10 -74 -3 -30 -7 -62 -9 -71 -2 -9 -6 -41 -10 -71 -7 -59 -44
-132 -72 -144 -10 -5 -38 -15 -63 -24 -26 -9 -45 -22 -45 -31 0 -13 33 -15
227 -16 177 -1 230 1 238 11 13 15 -8 31 -51 38 -84 16 -137 86 -133 178 6
142 18 316 29 424 13 117 26 234 30 254 2 9 4 23 5 31 2 29 30 -31 136 -290
31 -74 62 -147 70 -162 8 -16 12 -28 8 -28 -3 0 -2 -6 3 -12 5 -7 20 -42 33
-78 13 -36 27 -69 32 -75 4 -5 8 -19 8 -31 0 -13 5 -26 10 -29 6 -3 10 -16 10
-29 0 -12 4 -26 9 -31 5 -6 21 -47 36 -92 14 -46 31 -85 35 -88 13 -8 45 47
149 260 52 105 137 278 190 385 52 107 95 198 93 203 -1 4 1 7 6 7 4 0 16 20
27 45 11 25 23 45 28 45 9 0 8 6 13 -115 2 -55 7 -158 10 -230 12 -240 10
-447 -4 -482 -14 -31 -52 -55 -95 -57 -26 -1 -64 -32 -53 -43 10 -11 520 -13
537 -2 26 16 -38 52 -91 51 -3 0 -22 9 -42 20 -49 28 -65 65 -72 173 -4 50 -9
124 -12 165 -23 329 -34 686 -22 715 10 21 51 56 71 59 7 1 17 4 22 8 6 3 24
9 41 12 17 4 42 17 54 28 21 20 22 22 5 34 -11 8 -34 11 -64 8 -25 -3 -63 -6
-83 -8 -21 -1 -40 -5 -43 -8 -3 -3 -21 -2 -39 2 -19 4 -39 4 -46 0 -6 -4 -22
-5 -36 -2 -13 2 -24 2 -24 0 0 -3 -9 -42 -20 -86 -19 -77 -44 -132 -219 -497
-43 -88 -104 -215 -136 -282 -32 -68 -64 -123 -71 -123 -6 0 -47 89 -90 198
-42 108 -117 296 -164 417 -48 121 -91 240 -95 264 -4 25 -15 58 -25 75 -19
34 -7 32 -205 41 -66 3 -124 7 -130 9 -5 2 -20 0 -31 -5z"/>
<path d="M2448 8119 c-32 -18 -19 -72 29 -116 26 -24 63 -31 63 -11 0 6 3 8 7
5 3 -4 17 5 30 19 17 18 22 32 17 47 -4 12 -7 22 -8 23 0 0 -14 10 -30 22 -30
23 -79 28 -108 11z"/>
<path d="M2375 7770 c-11 -4 -23 -6 -27 -4 -3 2 -15 -7 -26 -21 -23 -29 -19
-71 9 -86 35 -18 187 6 190 30 0 3 2 14 4 23 7 38 -97 78 -150 58z"/>
<path d="M9625 7773 c-11 -3 -28 -15 -37 -26 -19 -22 -16 -29 28 -72 11 -11
28 -33 38 -48 l17 -28 20 37 c26 52 24 74 -10 112 -17 17 -31 31 -33 31 -2 -1
-12 -4 -23 -6z"/>
<path d="M9661 7524 c-6 -16 -25 -44 -41 -62 -31 -36 -32 -62 -3 -94 21 -23
94 -19 124 8 23 21 17 71 -12 92 -10 7 -27 29 -37 49 l-19 35 -12 -28z"/>
<path d="M2283 7448 c-18 -5 -33 -14 -34 -21 -1 -7 -2 -25 -3 -40 -2 -16 9
-54 24 -84 22 -45 29 -52 34 -37 4 10 22 30 42 44 54 39 64 50 64 74 0 46 -68
80 -127 64z"/>
<path d="M2261 7157 c-12 -20 -31 -39 -41 -42 -29 -9 -24 -31 11 -56 40 -28
84 -29 112 -1 l21 22 -31 32 c-18 18 -36 44 -41 57 -9 24 -9 24 -31 -12z"/>
<path d="M9673 7135 c-12 -32 4 -109 27 -127 42 -34 138 1 124 46 -19 64 -133
125 -151 81z"/>
<path d="M2177 6763 c-22 -6 -50 -59 -42 -82 12 -37 101 -42 141 -8 36 31 26
60 -27 81 -41 17 -42 17 -72 9z"/>
<path d="M9751 6709 c-37 -40 -32 -72 17 -98 23 -12 72 -8 81 7 12 19 1 68
-20 91 -25 27 -53 27 -78 0z"/>
<path d="M2148 6419 c-34 -13 -41 -34 -24 -67 31 -59 95 -101 125 -83 21 13
21 96 0 130 -20 33 -49 39 -101 20z"/>
<path d="M9761 6309 c-8 -24 -8 -39 3 -86 10 -44 52 -61 104 -41 46 17 53 51
20 89 -54 60 -112 77 -127 38z"/>
<path d="M2146 5975 c-25 -25 -38 -89 -25 -118 15 -32 56 -52 75 -36 18 15 34
73 27 101 -14 64 -44 85 -77 53z"/>
<path d="M9807 5929 c-90 -25 -65 -102 34 -102 40 0 62 17 72 55 11 40 -44 65
-106 47z"/>
<path d="M2163 5555 c-45 -19 -60 -79 -25 -101 32 -20 106 -4 135 29 15 17 15
23 4 40 -21 32 -77 47 -114 32z"/>
<path d="M9823 5552 c-17 -2 -43 -14 -58 -27 -21 -20 -24 -28 -15 -44 11 -21
29 -29 81 -36 44 -5 68 14 76 58 5 31 3 35 -23 43 -16 5 -43 8 -61 6z"/>
<path d="M2163 5214 c-48 -24 -48 -48 0 -99 46 -48 93 -67 109 -44 5 8 7 38 5
68 -3 41 -9 59 -27 73 -27 22 -45 22 -87 2z"/>
<path d="M9707 5152 c-23 -25 -21 -36 11 -69 16 -15 31 -37 35 -47 7 -18 9
-18 25 5 9 13 29 35 45 48 31 26 26 41 -24 67 -38 19 -73 18 -92 -4z"/>
<path d="M9729 4924 c-13 -14 -41 -40 -61 -58 -44 -39 -46 -46 -15 -82 42 -48
144 -39 148 14 3 37 0 49 -23 98 l-24 52 -25 -24z"/>
<path d="M2273 4775 c-45 -19 -55 -44 -36 -83 9 -18 19 -32 24 -32 4 0 19 -18
32 -41 l24 -40 6 30 c3 16 18 41 32 55 25 26 43 86 24 86 -5 0 -9 7 -9 15 0 8
-8 15 -17 16 -10 0 -25 2 -34 4 -8 1 -29 -3 -46 -10z"/>
<path d="M9619 4542 c-49 -47 -59 -84 -27 -98 13 -6 29 -9 36 -8 6 1 18 2 25
3 20 2 66 50 73 77 5 18 1 29 -12 39 -37 27 -55 25 -95 -13z"/>
<path d="M2288 4491 c-23 -48 -23 -49 7 -94 30 -43 59 -48 93 -17 29 27 28 33
-9 67 -17 15 -37 40 -45 56 -8 15 -18 27 -22 27 -4 0 -15 -18 -24 -39z"/>
<path d="M9533 4165 c-29 -29 -33 -37 -23 -55 14 -27 68 -60 98 -60 70 0 84
60 28 116 -19 19 -42 34 -51 34 -9 0 -33 -16 -52 -35z"/>
<path d="M2433 4137 c-13 -5 -23 -14 -23 -20 0 -11 47 -106 79 -157 22 -38 27
-83 11 -124 -8 -22 -5 -29 26 -54 43 -36 82 -57 90 -50 3 4 -8 32 -25 65 -68
132 -79 199 -47 290 l15 42 -32 7 c-53 12 -71 12 -94 1z"/>
<path d="M5742 3944 c-15 -12 -15 -15 -2 -24 8 -5 33 -15 55 -20 69 -19 96
-32 113 -59 15 -22 17 -74 18 -506 1 -271 -3 -491 -8 -505 -17 -44 -48 -68
-116 -86 -68 -17 -92 -29 -92 -45 0 -16 61 -24 128 -18 37 3 137 4 222 2 85
-2 164 -4 175 -4 36 0 65 11 65 25 0 11 -51 34 -90 39 -8 2 -21 6 -27 10 -7 5
-13 5 -13 2 0 -15 -62 40 -72 64 -15 34 -18 964 -4 1003 11 30 64 61 133 78
42 10 79 48 51 51 -7 1 -127 3 -266 4 -196 1 -256 -1 -270 -11z"/>
<path d="M9398 3873 c-25 -6 -31 -36 -17 -85 7 -24 11 -53 10 -66 -2 -22 -1
-22 43 10 42 29 46 36 46 72 0 23 -4 47 -9 55 -9 14 -43 20 -73 14z"/>
<path d="M9338 3629 c-20 -17 -38 -30 -40 -29 -11 5 -58 -22 -66 -37 -19 -35
-3 -69 38 -82 52 -15 63 -14 94 10 22 18 25 25 19 57 -4 20 -7 54 -8 75 0 20
0 37 0 37 0 -1 -17 -14 -37 -31z"/>
<path d="M2633 3499 c-19 -7 -20 -11 -12 -51 15 -65 55 -86 97 -50 60 53 -5
131 -85 101z"/>
<path d="M9113 3271 c-29 -38 -38 -91 -20 -115 17 -23 86 -32 109 -14 31 24
27 86 -8 127 -32 39 -54 39 -81 2z"/>
<path d="M2761 3161 c-26 -26 -27 -57 -1 -98 33 -55 105 -34 116 33 10 61 -72
108 -115 65z"/>
<path d="M8923 2932 c-22 -16 -19 -39 9 -69 40 -43 114 -37 135 10 14 31 6 45
-34 62 -42 18 -84 16 -110 -3z"/>
<path d="M3057 2842 c-28 -31 -31 -74 -8 -103 42 -54 131 -74 131 -29 0 10
-15 47 -33 82 -35 68 -61 83 -90 50z"/>
<path d="M8752 2654 c-17 -12 -20 -19 -12 -34 6 -10 11 -37 12 -60 1 -22 4
-37 7 -33 11 15 48 32 85 38 39 8 42 14 25 48 -29 56 -74 71 -117 41z"/>
<path d="M3270 2492 c-47 -7 -54 -23 -35 -81 8 -25 56 -49 90 -45 37 4 75 45
68 73 -11 43 -59 63 -123 53z"/>
<path d="M8682 2449 c-13 -5 -35 -11 -48 -13 -62 -12 -92 -27 -98 -52 -9 -34
8 -61 52 -83 66 -33 110 6 118 104 3 30 3 55 2 54 -2 0 -13 -4 -26 -10z"/>
<path d="M3531 2152 c-20 -16 -26 -44 -22 -100 1 -29 53 -82 79 -82 23 0 77
50 84 77 19 77 -83 153 -141 105z"/>
<path d="M8350 2152 c-38 -13 -40 -62 -3 -96 15 -14 30 -23 35 -20 4 3 8 1 8
-5 0 -5 8 -9 18 -9 9 0 22 -1 27 -3 27 -9 75 12 89 40 15 28 15 31 -10 50 -39
31 -130 55 -164 43z"/>
<path d="M8150 1923 c-68 -27 -42 -124 36 -139 58 -11 87 41 64 112 -10 31
-15 34 -48 33 -20 0 -44 -3 -52 -6z"/>
<path d="M3873 1863 c-12 -2 -24 -10 -27 -18 -10 -28 7 -84 34 -110 25 -24 31
-26 64 -17 93 26 95 106 3 141 -29 11 -35 12 -74 4z"/>
<path d="M4183 1625 c-66 -28 -80 -108 -26 -153 26 -21 35 -22 106 -17 68 6
81 4 112 -15 27 -17 38 -33 50 -74 14 -48 19 -54 55 -66 55 -18 60 -17 124 15
l56 28 -17 26 c-24 38 -82 78 -105 73 -86 -17 -95 -18 -131 -8 -31 9 -71 57
-80 96 -8 34 -66 100 -92 104 -12 2 -35 -2 -52 -9z"/>
<path d="M7807 1617 c-21 -26 -22 -60 -2 -77 36 -30 148 20 140 62 -6 30 -11
33 -69 34 -42 2 -55 -2 -69 -19z"/>
<path d="M7507 1422 c-21 -23 -22 -56 -1 -76 14 -14 19 -14 52 -1 38 17 72 43
72 56 0 13 -56 39 -83 39 -13 0 -31 -8 -40 -18z"/>
<path d="M7240 1224 c-50 -36 -154 -94 -182 -101 -13 -3 -58 -8 -100 -10 -43
-3 -78 -8 -79 -11 0 -4 -2 -14 -4 -24 -2 -9 5 -30 16 -47 13 -22 23 -29 36
-24 25 9 124 74 146 96 26 26 67 40 110 38 45 -2 61 9 88 60 29 59 24 63 -31
23z"/>
<path d="M4844 1205 c-18 -7 -35 -18 -39 -25 -13 -20 4 -58 36 -81 35 -24 72
-28 136 -12 54 14 109 -10 149 -63 61 -82 93 -94 164 -63 58 25 71 53 45 92
-27 42 -79 61 -144 52 -107 -13 -125 -12 -163 13 -21 13 -40 32 -43 42 -13 42
-91 66 -141 45z"/>
<path d="M6453 995 c-71 -13 -76 -16 -67 -38 11 -31 72 -60 111 -54 65 11 146
87 92 87 -25 0 -30 1 -54 10 -11 4 -48 2 -82 -5z"/>
<path d="M5608 962 c-16 -9 -28 -25 -28 -34 0 -10 0 -21 -1 -25 -1 -16 75 -30
113 -20 46 11 50 36 13 72 -28 29 -59 31 -97 7z"/>
<path d="M6023 945 c-40 -17 -55 -61 -28 -81 43 -32 165 -24 165 10 0 22 -33
58 -66 72 -39 16 -31 17 -71 -1z"/>
</g>
</svg>
